<svg width="469" height="279" viewBox="0 0 469 279" fill="none" xmlns="http://www.w3.org/2000/svg"><path d="M454.667 279v-6.233c0-10.165-35.708-18.408-79.755-18.408H86.114c-44.048 0-79.755 8.243-79.755 18.408V279h448.308z" fill="url(#a)"/><path opacity=".2" d="M405.38 90.18c-16.592-27.543-46.255-45.95-80.201-45.95-9.19 0-18.032 1.485-26.481 3.906C278.552 15.28 242.89 0 202.097 0 146.672 0 100.442 33.847 90.204 87.488c-1.656-.112-3.282-.312-4.987-.312C38.164 87.176 0 126.232 0 174.32c0 48.149 38.164 87.193 85.217 87.193h298.498c47.09 0 85.259-39.044 85.259-87.193 0-40.453-26.975-74.384-63.594-84.14z" fill="url(#b)"/><path d="M391.369 261.387c-11.662 0-21.93.701-27.818 1.759-23.726-2.799-88.841-4.813-165.454-4.813-96.675 0-175.046 3.204-175.046 7.154 0 3.951 78.371 7.154 175.046 7.154 78.664 0 145.207-2.121 167.272-5.039 6.059.89 15.454 1.464 26 1.464 18.277 0 33.093-1.719 33.093-3.84 0-2.12-14.82-3.839-33.093-3.839z" fill="#142948" style="mix-blend-mode:multiply" opacity=".32"/><path fill-rule="evenodd" clip-rule="evenodd" d="M385.46 169.308c-9.531-2.416-22.846-7.486-35.3-18.11-17.647-15.053 21.548-7.027 52.84 6.614l-13.427 9.98-4.113 1.516z" fill="#0E2D34"/><path fill-rule="evenodd" clip-rule="evenodd" d="M351.897 126.514c4.639 7.533 17.757 23.573 30.168 40.247l15.496 11.29 6.234-9.588c-6.89-22.512-17.713-46.577-29.097-60.404-19.975-24.258-39.076-7.976-22.801 18.455z" fill="#017EBE"/><path opacity=".7" fill-rule="evenodd" clip-rule="evenodd" d="M397.436 177.581c-11.289-36.812-41.791-72.326-41.901-72.456a.56.56 0 0 0-.83-.034.664.664 0 0 0-.043.886c.109.126 30.118 35.078 41.465 71.338l1.003.736.306-.47z" fill="#0E2D34"/><path fill-rule="evenodd" clip-rule="evenodd" d="M410.568 85.851c.804 9.15.093 29.964.047 51.683-4.706 7.578-6.955 28.85-15.17 31.774-7.198-22.437-17.014-62.952-16.249-81.28 1.497-35.873 28.311-37.01 31.372-2.177z" fill="#20C5D2"/><path fill-rule="evenodd" clip-rule="evenodd" d="M400.201 149.436c-9.142-37.187-6.336-78.638-6.324-78.805a.69.69 0 0 1 .222-.481.758.758 0 0 1 .508-.201.709.709 0 0 1 .481.228c.06.067.105.145.133.23.027.084.036.173.027.26-.009.173-2.782 41.14 6.162 77.942-.396.282-.797.564-1.209.827z" fill="#094C69"/><path fill-rule="evenodd" clip-rule="evenodd" d="M456.359 133.071c-5.286 6.424-18.973 19.435-32.8 33.45-7.889 1.93-22.871 14.268-30.097 10.975 9.547-19.049 28.867-51.439 41.009-62.809 23.77-22.253 42.015-6.072 21.888 18.384z" fill="#20C5D2"/><path fill-rule="evenodd" clip-rule="evenodd" d="M409.359 167.524c17.514-29.397 44.965-54.372 45.08-54.476a.626.626 0 0 1 .87 0 .592.592 0 0 1-.057.847c-.112.105-27.245 24.792-44.636 53.823a36.183 36.183 0 0 1-1.257-.194z" fill="#094C69"/><path fill-rule="evenodd" clip-rule="evenodd" d="M407.004 104.88c-2.146 8.56-7.906 44.429-11.158 64.897l6.184 3.505 11.19-2.336c11.273-20.673 20.908-45.207 22.848-62.946 3.401-31.123-21.536-33.164-29.064-3.12z" fill="#017EBE"/><path opacity=".4" fill-rule="evenodd" clip-rule="evenodd" d="M402.144 173.166c18.358-34.077 22.3-80.966 22.315-81.138a.553.553 0 0 0-.143-.434.561.561 0 0 0-.417-.184.666.666 0 0 0-.665.6c-.015.17-3.896 46.31-21.824 80.036l.179 1.236.555-.116z" fill="#0E2D34"/><path d="M434 170.132l-.636 3.64-7.935 90.06h-.428c-2.013 1.399-10.998 2.45-21.778 2.45-4.529 0-8.742-.186-12.254-.509a90.81 90.81 0 0 1-2.928-.315c-4.328-.558-7.031-1.348-7.031-2.224 0-.205.153-.405.428-.598L372 170.103l62 .029z" fill="#FF6D7B"/><path d="M437.974 170.596v2.42c0 1.025-1.211 1.856-2.707 1.856h-67.241v-4.276c0-2.466 2.918-4.468 6.517-4.468h56.919c3.594 0 6.512 2.002 6.512 4.468z" fill="#E92E35"/><path style="mix-blend-mode:darken" d="M437.974 170.343v2.281c0 .968-1.211 1.75-2.707 1.75h-.728l-.636 3.482s-42.747 50.777-45.786 86.836c-4.326-.533-7.027-1.289-7.027-2.128 0-.196.153-.388.428-.572l-9.415-87.622h-4.077v-4.031c0-2.324 2.918-4.211 6.517-4.211h56.919c3.594.004 6.512 1.891 6.512 4.215z" fill="url(#c)"/><path d="M36.712 192.531c.077-.47.182-.936.313-1.395a20.638 20.638 0 0 1 1.144-3.151c1.409-3.01 3.595-5.695 6.645-7.309 3.854-2.038 8.976-2.306 13.023-.621 3.299 1.372 5.762 3.99 7.442 6.983.958 1.708 1.74 3.511 2.139 5.493.216 1.076 1.932.621 1.717-.454-.356-1.766-1.083-3.507-1.9-5.117-1.633-3.213-4.113-6.134-7.427-7.869-4.226-2.219-9.673-2.399-14.131-.682-3.724 1.436-6.62 4.205-8.476 7.583-1.025 1.87-1.891 3.98-2.213 6.085-.069.459.12.911.623 1.049.417.116 1.024-.14 1.094-.595h.007z" fill="#2489ED"/><path d="M43.098 192.3c-.07.51.015-.057.038-.178.064-.347.141-.692.226-1.036a22.05 22.05 0 0 1 1.084-3.272c1.187-2.817 3.2-5.609 6.016-7.22 3.423-1.965 8.047-2.227 11.634-.516 3.022 1.44 5.156 4.074 6.614 6.965.84 1.663 1.569 3.571 1.916 5.485.195 1.079 1.893.621 1.69-.455-.316-1.747-.966-3.464-1.702-5.078-1.447-3.179-3.673-6.155-6.79-7.949-3.855-2.218-8.826-2.324-12.894-.596-3.43 1.455-5.98 4.342-7.572 7.576-.968 1.964-1.715 4.103-2.02 6.274-.063.461.45.849.884.854.526 0 .815-.399.877-.854h-.001z" fill="#3EA3FF"/><path d="M87.436 265.487H29.41l3.667-74.718h46.787c1.107 0 2.023.979 2.09 2.231l4.36 57.64 1.122 14.847z" fill="url(#d)"/><path d="M33.385 190.769h-5.517c-1.25 0-2.293 1.099-2.397 2.532l-5.6 72.186h9.904l3.61-74.718z" fill="#007EA5"/><path d="M62.511 215.71c.547-3.578 2.843-7.113 6.019-8.788 2.896-1.534 6.663-1.698 9.689-.458 2.397.983 4.257 2.921 5.517 5.168.709 1.263 1.302 2.64 1.591 4.078.173.858 1.471.495 1.298-.364-.792-3.928-3.438-7.866-6.974-9.706-3.174-1.652-7.199-1.779-10.517-.479-2.694 1.055-4.85 3.073-6.254 5.616-.77 1.39-1.422 2.982-1.666 4.572-.131.858 1.165 1.228 1.298.363v-.002z" fill="#B72137"/><path d="M104.128 267.872H56.436l3.013-54.051h38.455a1.717 1.717 0 0 1 1.718 1.614l3.581 41.697.925 10.74z" fill="#FF6D7B"/><path d="M59.615 213.821h-4.54a1.968 1.968 0 0 0-1.341.526 2.018 2.018 0 0 0-.638 1.304l-4.609 52.221h8.152l2.976-54.051z" fill="#E92E35"/><path style="mix-blend-mode:darken" d="M103.333 257.539c-22.176-7.776-32.739-32.276-36.564-43.718h31.224a1.727 1.727 0 0 1 1.73 1.629l3.61 42.089z" fill="url(#e)"/><path d="M66.485 215.71c.547-3.578 2.843-7.113 6.02-8.788 2.896-1.534 6.663-1.698 9.688-.458 2.398.983 4.264 2.921 5.518 5.168.708 1.263 1.301 2.64 1.591 4.078.173.858 1.47.495 1.298-.364-.793-3.928-3.438-7.866-6.976-9.706-3.173-1.652-7.197-1.779-10.515-.479-2.695 1.055-4.85 3.073-6.255 5.616-.77 1.39-1.423 2.982-1.665 4.572-.132.858 1.165 1.228 1.298.363l-.002-.002z" fill="#D83545"/><path d="M372.795 189.974H101.744l16.272-65.026c.799-7.843 4.102-14.674 8.89-19.417 4.402-4.366 10.061-6.967 16.182-6.967h186.45c12.304 0 22.819 10.534 24.89 24.937l18.367 66.473z" fill="#188AAD"/><path d="M367.231 189.974H101.744l8.354-33.524 7.884-31.623c.655-6.464 3.004-12.24 6.475-16.732a27.758 27.758 0 0 1 2.396-2.72c3.586-2.321 7.688-3.631 12.02-3.631h186.101c12.283 0 22.778 10.549 24.844 24.977l17.413 63.253z" fill="#1BA7BE"/><path d="M371.384 153.41s-20.806 7.59-29.02 23.575H132.391s-5.585-22.383-25.083-22.105v39.069H373.59l-2.206-40.539z" fill="#D4D4D4" style="mix-blend-mode:multiply" opacity=".55"/><path d="M365.474 248.795H113.833c-4.482 0-8.115 3.712-8.115 8.292v1.698c0 4.58 3.633 8.292 8.115 8.292h251.641c4.482 0 8.116-3.712 8.116-8.292v-1.698c0-4.58-3.634-8.292-8.116-8.292z" fill="#006888"/><path d="M401.956 177.364c-.978 6.052-1.618 12.697-2.395 19.598-1.606 14.282-3.792 29.665-10.748 43.17-4.907 9.542-13.046 15.022-21.585 15.022H107.454c-8.54 0-16.672-5.48-21.586-15.022-8.105-15.735-9.838-34.022-11.664-50.144-.497-4.401-1.002-8.642-1.648-12.624-2.452-15.173-1.014-29.518 10.364-29.518h5.966c10.69 0 20.812 6.877 27.097 18.69 4.499 8.459 6.72 19.377 6.72 19.377l114.635 2.497 107.196-2.327 7.435-.162s.667-3.277 2.009-7.63c1.107-3.595 2.678-7.925 4.711-11.751 2.578-4.842 5.798-8.856 9.439-11.905 5.24-4.39 11.351-6.785 17.658-6.785h5.969c6.853 0 10.041 5.207 10.955 12.665.605 4.918.22 10.818-.754 16.849z" fill="#1BA7BE"/><path d="M360.993 221.769H114.34c-3.445 0-6.237-3.759-6.237-8.395 0-14.679 8.842-26.579 19.75-26.579h221.643c9.795 0 17.735 10.686 17.735 23.868v2.711c.002 4.636-2.786 8.395-6.238 8.395z" fill="#006888"/><path d="M120.817 185.205s.932-44.085-26.74-44.508c-27.672-.424-22.074 30.096-22.074 30.096l48.814 14.412zM402.497 170.79l-38.543 11.388-10.232 3.027s-.06-2.828.3-7.064c1.064-12.449 5.775-37.047 26.401-37.445h.107c16.875-.252 21.351 10.935 22.264 19.742a39.831 39.831 0 0 1-.297 10.352z" fill="#28B1CD"/><path d="M110.883 169.296c.571 5.177.522 9.491.139 13.209-1.46 14.181-7.775 19.678-3.01 31.315l22.124-24.936.223-2.624-7.423-.163s-.665-3.289-2.007-7.659c-1.061-12.551-5.761-37.345-26.34-37.746 3.672 2.401 8.661 6.739 12.212 13.995 1.93 3.951 3.436 8.766 4.082 14.609z" fill="#006888"/><path d="M236.077 193.389v16.219c0 4.083-2.433 7.392-5.433 7.392H117.51c-3.002 0-5.433-3.309-5.433-7.392 0-5.288.605-10.168 1.963-14.104.304-.886.664-1.752 1.078-2.592 2.119-4.273 5.433-6.912 10.235-6.912H230.65c2.527 0 4.657 2.354 5.261 5.539.113.611.169 1.23.166 1.85z" fill="#1BA7BE"/><path d="M364.451 169.296c-.57 5.177-.521 9.491-.139 13.209 1.461 14.181 7.775 19.678 3.011 31.315l-22.125-24.936-.224-2.624 7.425-.163s.664-3.289 2.006-7.659c1.061-12.551 5.761-37.345 26.339-37.746-3.672 2.401-8.659 6.739-12.21 13.995-1.93 3.951-3.432 8.766-4.083 14.609z" fill="#006888"/><path d="M363.256 209.609c0 2.04-.61 3.895-1.598 5.227-.987 1.332-2.347 2.164-3.852 2.164H243.913c-3.01 0-5.451-3.309-5.451-7.391v-16.218a9.843 9.843 0 0 1 .172-1.852c.606-3.185 2.741-5.539 5.279-5.539H349.56c7.569 0 11.705 6.543 13.125 15.683a51.79 51.79 0 0 1 .571 7.926z" fill="#1BA7BE"/><path d="M399.821 196.95c-1.609 14.286-3.799 29.672-10.767 43.179-4.914 9.544-13.067 15.025-21.62 15.025H107.228c-8.554 0-16.7-5.481-21.622-15.025-8.118-15.738-9.854-34.029-11.683-50.155.321 1.458.65 3.091.986 4.915 9.066 49.237 18.921 51.898 27.199 55.003 8.277 3.105 253.462-.887 270.412-5.321 16.949-4.433 27.199-48.348 27.199-48.348l.102.727z" fill="#006888"/><path d="M362.461 202.692c-.207-.267-.486-.774-.846-1.553-5.165-11.156-20.129-9.243-20.129-9.243H237.667c.61-3.392 2.757-5.896 5.311-5.896H349.26c7.613 0 11.775 6.963 13.201 16.692zM236.872 191.833h-41.9s-.808 10.06-1.21 12.804c-.402 2.743-7.254 11.889-10.082 12.346-2.828.456-3.225-8.231-3.225-8.231s-.807-20.12-25.403-11.89c-19.685 6.588-35.76 1.46-41.385-.852.306-.931.669-1.843 1.088-2.729 2.143-4.498 5.496-7.281 10.342-7.281h106.451c2.563 0 4.709 2.478 5.324 5.833z" fill="#D4D4D4" style="mix-blend-mode:multiply" opacity=".55"/><path d="M146.256 158.18l-22.354-.454-16.594-6.861 8.99-32.645c.747-6.673 3.424-12.635 7.385-17.271l17.097 14.069 5.476 43.162z" fill="#BBBCBB" style="mix-blend-mode:multiply" opacity=".55"/><path style="mix-blend-mode:screen" d="M230.973 18.63L114.086 45.38s-58.897 144.097 52.765 189.711c110.843 45.282 164.611-43.105 164.611-43.105l-28.444-168.73a5.828 5.828 0 0 0-1.973-3.57 5.842 5.842 0 0 0-3.832-1.404l-66.24.348z" fill="url(#f)"/><path d="M308.191 16h-73.382c-3.761 0-6.809 3.483-6.809 7.779V179.22c0 4.296 3.048 7.779 6.809 7.779h73.382c3.761 0 6.809-3.483 6.809-7.779V23.779c0-4.296-3.048-7.779-6.809-7.779z" fill="#2A2B2B"/><path d="M302.191 16h-73.382c-3.761 0-6.809 3.483-6.809 7.779V179.22c0 4.296 3.048 7.779 6.809 7.779h73.382c3.761 0 6.809-3.483 6.809-7.779V23.779c0-4.296-3.048-7.779-6.809-7.779zM313 38.4c0-.773-.448-1.4-1-1.4s-1 .627-1 1.4v23.2c0 .773.448 1.4 1 1.4s1-.627 1-1.4V38.4zM313 66.4c0-.773-.448-1.4-1-1.4s-1 .627-1 1.4v23.2c0 .773.448 1.4 1 1.4s1-.627 1-1.4V66.4z" fill="#444"/><path d="M303.131 18.006c1.026 0 2.01.466 2.736 1.294.725.828 1.133 1.951 1.133 3.122v153.846c0 3.703-2.859 6.732-6.351 6.732h-70.298c-3.495 0-6.351-3.029-6.351-6.732V24.739c0-3.703 2.859-6.739 6.351-6.739l72.78.006z" fill="#fff"/><path d="M307 22.462v20.464L224 129V95.002L298.412 18h4.695c.511 0 1.018.115 1.49.34.472.224.902.553 1.263.967.362.415.648.907.844 1.448.196.541.296 1.122.296 1.707zM224 142.713L307 60v19.02L224 165v-22.287zM307 130v46.228c0 3.724-2.865 6.772-6.362 6.772H255l52-53zM279 18l-55 54V58.751L269.379 18H279z" fill="#E9FAFF"/><path d="M229.718 17.487l3.052 6.276c.497 1.022 1.557 1.673 2.722 1.673h57.988c1.346 0 2.53-.867 2.896-2.123l1.701-5.826h-68.359z" fill="#444"/><path d="M292.568 40h-54.136c-2.448 0-4.432 2.3-4.432 5.136v62.728c0 2.837 1.984 5.136 4.432 5.136h54.136c2.448 0 4.432-2.299 4.432-5.136V45.136c0-2.837-1.984-5.136-4.432-5.136z" fill="#fff"/><path d="M297 95v13.656c0 2.39-1.995 4.344-4.432 4.344h-54.136c-2.438 0-4.432-1.954-4.432-4.344V95h63zM295.9 150c1.087 0 2.13.43 2.899 1.195a4.069 4.069 0 0 1 1.201 2.884v8.06c0 2.123-2.154 3.861-4.781 3.861h-58.438c-2.631 0-4.781-1.738-4.781-3.861v-8.06c0-1.082.432-2.119 1.202-2.884a4.111 4.111 0 0 1 2.899-1.195H295.9zM239 132a3 3 0 1 0 0-6 3 3 0 0 0 0 6zM239 141a3 3 0 1 0 0-6 3 3 0 0 0 0 6zM293.829 127h-48.658c-.647 0-1.171.646-1.171 1.444v.112c0 .798.524 1.444 1.171 1.444h48.658c.647 0 1.171-.646 1.171-1.444v-.112c0-.798-.524-1.444-1.171-1.444zM293.829 136h-48.658c-.647 0-1.171.646-1.171 1.444v.112c0 .798.524 1.444 1.171 1.444h48.658c.647 0 1.171-.646 1.171-1.444v-.112c0-.798-.524-1.444-1.171-1.444z" fill="#2779B5"/><path d="M275.752 59.982a1.221 1.221 0 0 1-.657.545c-.628.206-1.393-.252-1.536-1.052a8.484 8.484 0 0 0-.268-1.018c-.021-.066-.044-.126-.065-.2-.079-.203-.155-.406-.24-.607-.187-.442-.396-.869-.628-1.28-.06-.108-.122-.211-.185-.317l-.042-.072-.015-.02c-.132-.186-.259-.378-.396-.56-.329-.43-.685-.83-1.064-1.197l-.022-.019c-.041-.034-.081-.07-.123-.107a8.547 8.547 0 0 0-1.44-1.008 4.883 4.883 0 0 0-.189-.103h-.007a10.795 10.795 0 0 0-.837-.354c-1.39-.504-2.615-.63-4.111-.518a7.055 7.055 0 0 0-1.819.343 8.542 8.542 0 0 0-.93.347c-.042.019-.221.106-.247.116a8.79 8.79 0 0 0-.34.19 8.543 8.543 0 0 0-1.258.922h-.003c-.024.027-.209.204-.246.24a9.657 9.657 0 0 0-1.077 1.344c-.022.036-.112.179-.141.23a12.04 12.04 0 0 0-.757 1.533c-.052.126-.256.73-.153.396-.045.136-.092.271-.134.41-.092.301-.173.605-.244.914-.05.22-.098.446-.132.674l-.021.149c-.015.129-.05.254-.104.367-.264.568-.942.847-1.43.684-.707-.234-.969-1.049-.871-1.85.012-.113.028-.222.046-.334.209-1.304.697-2.606 1.249-3.725 1.197-2.42 3.058-4.259 5.262-5.199 2.811-1.217 6.276-1.108 9.043.242 2.134 1.036 3.936 2.87 5.141 5.23.523 1.019.992 2.186 1.205 3.362.042.223.045.454.008.679a1.828 1.828 0 0 1-.222.623z" fill="#3F93E8"/><path d="M274.997 59.874a1.222 1.222 0 0 1-.657.545c-.628.207-1.393-.252-1.536-1.051a8.678 8.678 0 0 0-.268-1.02c-.021-.065-.044-.125-.065-.198-.08-.204-.156-.407-.241-.608a12.675 12.675 0 0 0-.813-1.597l-.042-.072-.016-.02c-.132-.187-.258-.378-.395-.56-.33-.43-.685-.83-1.065-1.197l-.022-.02c-.042-.033-.081-.07-.123-.106a7.366 7.366 0 0 0-.3-.245 8.684 8.684 0 0 0-1.33-.866h-.007a10.963 10.963 0 0 0-.837-.354c-1.391-.504-2.617-.63-4.114-.518a7.079 7.079 0 0 0-1.82.343 8.543 8.543 0 0 0-.93.346c-.043.02-.222.106-.248.116-.115.06-.229.126-.34.19-.44.265-.86.574-1.256.923-.024.027-.21.203-.246.24a9.245 9.245 0 0 0-1.078 1.344c-.022.036-.112.179-.141.23l-.164.286c-.218.401-.416.818-.593 1.247-.052.126-.257.73-.154.396-.045.136-.092.271-.134.41-.092.301-.173.605-.244.914-.05.22-.098.446-.132.674a8.229 8.229 0 0 0-.104.434l-.019.082a7.984 7.984 0 0 0-.134.74c-.098.81-.949 1.246-1.537 1.052-.707-.234-.97-1.049-.872-1.85.061-.49.157-.972.286-1.443.257-.913.596-1.79 1.009-2.615 1.198-2.42 3.061-4.26 5.267-5.2 2.812-1.216 6.279-1.108 9.048.242 2.14 1.03 3.949 2.861 5.161 5.224.523 1.018.994 2.186 1.206 3.362.004.066.004.133 0 .2z" fill="#1CB3E2"/><path d="M286.88 87h-41.753c-.486 0-.966-.135-1.4-.395a3.333 3.333 0 0 1-1.104-1.105 4.156 4.156 0 0 1-.574-1.581 4.453 4.453 0 0 1 .079-1.722l5.255-21.38c.19-.772.583-1.45 1.121-1.934.537-.484 1.191-.747 1.863-.75l24.375-.11 5.015-.023a2.77 2.77 0 0 1 1.762.643c.52.422.922 1.022 1.154 1.722l7.107 21.512c.188.568.257 1.181.201 1.788a4.22 4.22 0 0 1-.52 1.694c-.286.505-.67.919-1.12 1.205-.45.286-.952.436-1.461.436z" fill="#0FA1CF"/><path d="M281.854 87h-36.7c-.49 0-.974-.135-1.412-.395-.439-.26-.82-.64-1.114-1.106a4.118 4.118 0 0 1-.578-1.583 4.421 4.421 0 0 1 .079-1.723l5.301-21.396c.191-.774.588-1.453 1.13-1.937.542-.484 1.201-.748 1.879-.75l24.587-.11a2.889 2.889 0 0 1 1.566.745c.455.413.807.966 1.017 1.6l7.17 21.53c.189.567.258 1.181.202 1.788a4.21 4.21 0 0 1-.524 1.694c-.289.505-.676.92-1.13 1.206a2.76 2.76 0 0 1-1.473.437z" fill="#4EBBE8"/><path d="M262.7 73.904v3.594h-1.005v-8.643h2.371c1.06 0 1.842.203 2.347.609.508.406.762 1.017.762 1.833 0 1.143-.579 1.915-1.738 2.317l2.347 3.884h-1.188l-2.093-3.594H262.7zm0-.863h1.377c.71 0 1.23-.14 1.561-.42.331-.284.497-.708.497-1.271 0-.572-.17-.983-.509-1.236-.335-.252-.875-.378-1.62-.378H262.7v3.305z" fill="#fff"/><path fill-rule="evenodd" clip-rule="evenodd" d="M270.306 73.064a7.155 7.155 0 0 1-10.417 6.369.503.503 0 0 0-.23-.057c-.463 0-.638.552-.228.768a7.996 7.996 0 1 0 .001-14.16c-.41.215-.235.766.228.766.08 0 .158-.02.23-.056a7.155 7.155 0 0 1 10.416 6.37z" fill="#fff"/><path fill="#fff" d="M256.842 68.855h5.269v.993h-5.269zM256 72.588h6.111v.993H256zM256.867 76.531h5.832v1.025h-5.832V76.53z"/><path d="M248.779 62.554l-1.749 7.462c-.232.987.957 1.407 1.189.424l1.751-7.456c.232-.987-.958-1.407-1.189-.425l-.002-.005zM246.718 72.516l-.687 2.575c-.243.91 1.009 1.3 1.251.392l.687-2.574c.243-.912-1.008-1.3-1.251-.393z" fill="#FAFBFC"/><path d="M274.231 58.424c-.001.105-.067.206-.183.28a.826.826 0 0 1-.437.117h-17.045a.82.82 0 0 1-.436-.117c-.116-.074-.181-.175-.181-.28 0-.105.065-.206.181-.28a.822.822 0 0 1 .436-.118h17.045c.164 0 .322.042.438.116.116.075.181.176.182.282z" fill="#0D6099"/><path d="M269.462 58.424c-.001.105-.065.206-.179.28a.79.79 0 0 1-.427.117h-12.303a.793.793 0 0 1-.427-.117c-.113-.074-.177-.175-.177-.28 0-.105.064-.206.177-.28a.793.793 0 0 1 .427-.118h12.301c.161 0 .315.042.429.116.114.075.178.176.179.282z" fill="#1B73BC"/><path d="M244.994 158.496a4.49 4.49 0 0 1-.727 2.456 4.488 4.488 0 0 1-1.95 1.662 4.499 4.499 0 0 1-4.85-.784v-.007a4.497 4.497 0 0 1-.526-6.077 4.495 4.495 0 0 1 3.924-1.731A4.495 4.495 0 0 1 245 158.5l-.006-.004z" fill="url(#g)"/><path d="M242.445 158h-4.89c-.307 0-.555.224-.555.5s.248.5.555.5h4.89c.307 0 .555-.224.555-.5s-.248-.5-.555-.5z" fill="#fff"/><path d="M241 160.445v-4.89c0-.307-.224-.555-.5-.555s-.5.248-.5.555v4.89c0 .307.224.555.5.555s.5-.248.5-.555zM253 160.531a.43.43 0 0 1-.157.333.533.533 0 0 1-.359.136.466.466 0 0 1-.431-.289l-.369-.826h-2.361l-.368.826a.476.476 0 0 1-.179.215.457.457 0 0 1-.254.074.548.548 0 0 1-.48-.284.424.424 0 0 1-.042-.185.561.561 0 0 1 .056-.224l1.88-3.971a.554.554 0 0 1 .231-.248.664.664 0 0 1 .662 0c.102.06.184.148.237.253l1.881 3.97c.032.069.05.144.053.22zm-3.31-1.477h1.623l-.808-1.824-.815 1.824zM254.12 160.864a.53.53 0 0 1-.093-.178.583.583 0 0 1-.024-.204v-3.962a.504.504 0 0 1 .117-.383.419.419 0 0 1 .155-.111.362.362 0 0 1 .181-.023h1.249c.425-.013.847.089 1.231.298.334.186.61.485.789.857.191.412.285.873.274 1.339.011.466-.082.928-.271 1.342a1.919 1.919 0 0 1-.786.862 2.447 2.447 0 0 1-1.24.298h-1.246a.4.4 0 0 1-.18-.029.442.442 0 0 1-.156-.106zm2.916-2.367c0-1.067-.466-1.601-1.398-1.601h-.668v3.21h.668c.935 0 1.402-.537 1.402-1.609h-.004zM259.12 160.864a.53.53 0 0 1-.093-.178.583.583 0 0 1-.024-.204v-3.962a.504.504 0 0 1 .117-.383.419.419 0 0 1 .155-.111c.058-.023.12-.031.181-.023h1.25c.425-.013.847.089 1.23.298.334.186.61.485.79.857.19.412.284.873.273 1.339.011.466-.082.928-.271 1.342a1.919 1.919 0 0 1-.786.862 2.443 2.443 0 0 1-1.239.298h-1.25a.405.405 0 0 1-.178-.029.438.438 0 0 1-.155-.106zm2.915-2.367c0-1.067-.466-1.601-1.398-1.601h-.667v3.21h.667c.932 0 1.398-.537 1.398-1.609zM267.64 160.851a.537.537 0 0 1-.106-.181.589.589 0 0 1-.031-.213v-3.563h-1.031c-.315 0-.472-.15-.472-.45 0-.3.157-.448.472-.444h3.056c.315 0 .472.148.472.444 0 .296-.157.446-.472.45h-1.032v3.563a.588.588 0 0 1-.03.213.535.535 0 0 1-.104.181.45.45 0 0 1-.362.148.469.469 0 0 1-.36-.148zM271.174 160.693a2.13 2.13 0 0 1-.868-.871 3.03 3.03 0 0 1 0-2.65 2.11 2.11 0 0 1 .868-.868c.41-.2.865-.304 1.326-.304.461 0 .916.104 1.326.304.374.201.676.503.868.868a3.024 3.024 0 0 1 0 2.65 2.117 2.117 0 0 1-.868.871 3 3 0 0 1-1.326.307 3 3 0 0 1-1.326-.307zm2.332-.954c.246-.283.368-.695.367-1.238-.001-.543-.122-.954-.363-1.234a1.405 1.405 0 0 0-1.008-.424c-.19 0-.378.037-.552.111-.173.073-.329.18-.456.313-.24.283-.359.694-.359 1.234s.121.952.363 1.238c.121.14.274.252.448.325.174.074.364.108.555.099a1.27 1.27 0 0 0 1.012-.427l-.007.003zM279.085 160.69a2.032 2.032 0 0 1-.804-.87 3.255 3.255 0 0 1 0-2.648 2.02 2.02 0 0 1 .804-.868 2.574 2.574 0 0 1 2.734.194c.057.044.105.1.141.165a.48.48 0 0 1 .04.212.496.496 0 0 1-.098.307.29.29 0 0 1-.237.128.515.515 0 0 1-.165-.024.604.604 0 0 1-.157-.087 2.187 2.187 0 0 0-.496-.258 1.483 1.483 0 0 0-.489-.08c-.428 0-.752.137-.967.411-.216.275-.326.683-.326 1.226 0 1.096.431 1.644 1.293 1.645.16.001.318-.026.469-.079.178-.07.35-.157.513-.26a.95.95 0 0 1 .168-.086.421.421 0 0 1 .154-.024c.046 0 .092.012.133.034a.299.299 0 0 1 .104.093c.066.088.1.197.098.308a.458.458 0 0 1-.045.212.519.519 0 0 1-.136.162 2.574 2.574 0 0 1-2.734.193l.003-.006zM287 160.532a.437.437 0 0 1-.157.332.531.531 0 0 1-.358.136.466.466 0 0 1-.432-.288l-.368-.825h-2.361l-.369.825a.476.476 0 0 1-.178.214.457.457 0 0 1-.254.074.548.548 0 0 1-.362-.136.425.425 0 0 1-.161-.332.546.546 0 0 1 .057-.224l1.88-3.965a.545.545 0 0 1 .229-.255.664.664 0 0 1 .661 0c.102.06.184.147.237.252l1.88 3.965a.543.543 0 0 1 .056.227zm-3.31-1.475h1.623l-.808-1.821-.815 1.821zM292 160.551a.394.394 0 0 1-.151.322.537.537 0 0 1-.603.063.508.508 0 0 1-.206-.195l-.89-1.375a.828.828 0 0 0-.241-.262.595.595 0 0 0-.323-.08h-.547v1.415a.553.553 0 0 1-.137.4.496.496 0 0 1-.374.147.476.476 0 0 1-.384-.147.52.52 0 0 1-.141-.4v-3.925a.47.47 0 0 1 .295-.488c.063-.023.13-.031.196-.023h1.695c.557 0 .978.127 1.263.381.285.255.427.622.427 1.104.012.343-.096.679-.303.947-.221.264-.524.44-.856.497a.861.861 0 0 1 .361.165c.122.099.226.218.31.353l.516.8a.551.551 0 0 1 .093.301zm-1.313-2.519a.64.64 0 0 0 .207-.516c0-.237-.069-.41-.207-.518-.137-.108-.355-.162-.653-.161h-1.004v1.359h1.004c.301 0 .519-.055.653-.164zM294.641 160.852a.533.533 0 0 1-.107-.181.589.589 0 0 1-.031-.213v-3.564h-1.031c-.315 0-.472-.15-.472-.45 0-.3.157-.448.472-.444h3.056c.315 0 .472.148.472.444 0 .296-.157.446-.472.45h-1.031v3.564a.586.586 0 0 1-.03.212.53.53 0 0 1-.104.182.524.524 0 0 1-.361.148.524.524 0 0 1-.361-.148z" fill="#fff"/><path d="M144.667 49.471l10.588-4.163s7.319 3.141 9.377 16.142c2.058 13.001.569 19.723 4.476 23.156s.427 15.046-1.136 20.014c-1.564 4.967 2.837 7.45 2.837 7.45s-7.178.365-9.096-4.237c-1.919-4.602-2.488-7.815-6.253-9.13-3.766-1.316-5.757-9.639-3.909-15.413 1.848-5.774.79-30.676-6.884-33.819z" fill="#263238"/><path d="M134.245 48.495s-8.262-.653-9.339 10.218c-1.078 10.871 6.111 27.105 3.376 31.816-2.735 4.71 15.59 4.856 15.59 4.856l-1.371-18.19-8.256-28.7z" fill="#1B2428"/><path d="M141.483 84.18v5.366l-7.15-1.849s3.708 10.563 10.429 11.57c6.72 1.006 12.623-6.54 12.623-6.54l-5.246-1.341-.165-8.72-10.491 1.514z" fill="#F4AB8C"/><path d="M153.41 82.667l-.967 9.663s-.242 2.991.806 4.644l-5.403-4.27.807-6.142 1.45-2.847 3.307-1.048z" fill="#F4AB8C"/><path d="M158.103 75.545c-.424 5.393-3.846 7.91-6.831 9.104a16.795 16.795 0 0 1-3.729.991c-3.698.554-5.7 0-8.977-1.775-.869-.47-1.699-1.798-2.453-3.502a69.476 69.476 0 0 1-.38-.9c-1.09-2.732-1.991-6.116-2.551-8.474l-.208-.899c-.275-1.206-.427-1.98-.427-1.98s-3.166-16.42 5.067-18.748c3.209-.907 5.881-1.041 8.091-.71 7.257 1.08 9.545 7.145 9.545 7.145s3.486 11.65 2.853 19.748z" fill="#FABB9B"/><path d="M134.647 60.27s7.598 9.204 23.748 6.136c0 0 7.75-24.543-13.56-23.447 0 0-8.826-.22-11.834 6.355 0 0-4.95-1.535-6.673 6.355-1.723 7.889-.43 15.558 3.875 17.312 4.305 1.754 4.444-12.711 4.444-12.711z" fill="#263238"/><path d="M137.571 147.051l-1.648 6.79L162.949 155l-5.603-7.949h-19.775z" fill="#043172"/><path opacity=".64" d="M137.571 147.051l-1.648 6.79L162.949 155l-5.603-7.949h-19.775z" fill="url(#h)"/><path d="M134.947 86.857s3.382 10.915 10.466 10.915 13.044-6.514 13.044-6.514 11.653-3.37 14.873.54c3.219 3.91 28.766 34.813 16.528 44.425-12.238 9.612-20.454 6.515-20.454 6.515s-11.913 7.493-23.503 7.493c-11.591 0-13.526-4.072-11.917-6.028l-.631-3.97a10.764 10.764 0 0 0-.525-2.023l-3.838-10.461-1.288-.489s-9.343 24.926-24.477 18.084c-15.135-6.843 11.433-54.251 11.433-54.251s6.601-13.848 20.289-4.236z" fill="url(#i)"/><path d="M101.744 127.179s1.915-5.511 4.893-7.631c2.977-2.119 10.209-5.086 10.209-5.086l-15.102 12.717z" fill="#FF344A"/><path d="M179.641 118.436l-11.809-4.481.073 2.368-4.956-3.06 4.446-12.314s9.185 8.301 12.246 17.487z" fill="#E51F3B"/><path d="M151.82 96.207s.613 3.117 2.786 3.718c2.172.601 4.845 2.784 5.181 5.247.335 2.464 3.397 4.866 5.124 5.302 1.726.437-2.396-10.33-2.396-10.33l-5.96-4.05-3.174-.71-1.561.823z" fill="#E51F3B"/><path d="M171.349 112.072s-7.342.327-9.414-4.237c-1.788-3.952-2.435-7.346-6.471-9.131-3.488-1.545-5.651-8.477-4.396-14.127 3.008-1.179 6.459-3.667 6.885-8.991.236-2.973-.1-6.43-.617-9.6a84.376 84.376 0 0 0-2.254-9.904s-2.306-5.99-9.62-7.056l9.785-3.718s7.574 3.14 9.704 16.144c2.129 13.004 1.305 19.032 4.633 23.154 5.37 6.648 2.281 13.002-1.176 20.015-2.313 4.69 2.941 7.451 2.941 7.451z" fill="#263238"/><path opacity=".8" d="M170.897 112.072s-7.068.33-9.063-4.273c-1.721-3.986-2.344-7.408-6.23-9.21-3.358-1.557-5.44-8.548-4.232-14.246 2.896-1.19 6.219-3.7 6.628-9.069.228-2.998-.096-6.484-.594-9.682.815-.773 2.428-1.856 4.27-.706 2.654 1.663 3.292 9.283-1.01 10.886 0 0-1.327 6.354-4.142 8.674-2.815 2.32-3.399 9.558 1.329 11.823 4.727 2.266 5.628 4.807 5.787 8.399.159 3.591 3.889 6.913 7.257 7.404z" fill="#1B2428"/><path d="M156.59 67.692s.258-2.8 3.086-2.488c4.434.487 2.5 13.363-2.501 9.631l-.585-7.143zM167.718 115.65l-11.773-5.949-3.876-8.383s-8.11-6.775-9.689-9.113c0 0-2.009.585 0 3.433 2.01 2.849 4.664 5.333 4.664 5.333l-4.214 4.936a4.36 4.36 0 0 0-1.044 2.962c.042 1.366.32 2.997.953 3.571 1.148 1.042 3.391 1.553 4.324.603 0 0 1.274 3.633 2.709 4.146 1.436.512 4.735.072 4.735.072l11.268 8.329 1.943-9.94z" fill="#FABB9B"/><path d="M166.923 117.641s.669-1.081.558-3.974c0 0 .808 3.137-.558 3.974z" fill="#E51F3B"/><path d="M161.22 130.96l-7.051-17.518s8.856-4.094 22.299 9.66c13.442 13.754 27.053 36.838 24.269 49.118-2.783 12.28-25.414 15.39-25.414 15.39s-65.424 4.096-71.654-6.549c-6.23-10.645-2.295-25.541 17.381-27.667 19.676-2.127 34.267-.165 34.267-.165l5.903-22.269z" fill="#19568C"/><path d="M131.949 159.85s-15.295-2.43-21.778 4.688c0 0 1.668-4.513 4.988-5.381 0 0-4.822.868-8.646 2.43 0-.001 6.312-8.161 25.436-1.737z" fill="url(#j)"/><path d="M162.248 171.918l23.747 5.479s1.632-6.972 6.346-6.474c4.714.498 11.549 8.798 12.2 9.13.652.331 6.833.664 8.623 1.993 1.79 1.328 4.718 1.665 5.206 2.49.488.825.163 2.818-.977 2.818s-20.985 1.494-28.958-.166l-29.608 1.992s-10.569-15.767 3.421-17.262z" fill="#EFA78B"/><path d="M168.906 188.911s-32.292 8.258-50.091 5.121c-3.011-.531-5.849-1.923-8.343-3.867-12.244-9.542-16.103-32.392 9.496-31.98 0 0 18.455 1.32 44.981 10.406 0 0 2.972 4.717 4.007 11.345a26.958 26.958 0 0 1-.05 8.975z" fill="#2779B5"/><path opacity=".64" d="M168.907 189.11s-32.285 7.977-50.079 4.947c-3.01-.514-5.847-1.858-8.341-3.736 27.696 3.584 53.447-7.547 58.468-9.885.486 2.873.47 5.806-.048 8.674z" fill="url(#k)"/><path d="M167.718 170.866c.442.537 13.298 17.284 13.298 17.284s3.199 23.479 3.754 24.522c.555 1.042 2.638 1.745 4.267.435 1.628-1.311 1.5-1.654 3.406-2.446 1.906-.791 3.904-4.033 4.33-4.976.425-.943.99-1.541 1.883-3.75.893-2.208-8.142-17.415-8.142-17.415l-7.284-20.776-15.512 7.122z" fill="#FABB9B"/><path d="M186.794 163.568c-.037 3.377-.413 5.378-.413 5.378-6.078 5.597-17.068 5.926-17.068 5.926-9.682-1.152-24.452-23.367-26.085-40.157-.549-5.612.46-9.843 2.048-12.992 3.166-6.269 8.611-8.238 8.611-8.238 18.217-4.608 25.437 17.78 30.196 32.587a55.68 55.68 0 0 1 2.711 17.496z" fill="#2779B5"/><path opacity=".55" d="M186.795 163.714c-.037 3.333-.413 5.309-.413 5.309-6.078 5.524-17.069 5.849-17.069 5.849-9.682-1.137-24.452-23.065-26.085-39.638-.549-5.539.46-9.716 2.048-12.824-.088 6.329 1.647 16.123 10.423 26.795 9.504 11.566 22.66 14.167 31.096 14.509z" fill="url(#l)"/><path style="mix-blend-mode:screen" d="M122.537 85.422l-2.511-40.237s20.328-15.149 40.737-5.284C178.939 48.682 177.5 78.5 177.5 78.5l-37.146 26.423-17.817-19.5z" fill="url(#m)"/><path d="M140.394 104.923l.298-.841-5.19-21.415-.374.842 5.266 21.414z" fill="#2779B5"/><path opacity=".99" d="M124.404 98.016l-2.789-11.756 13.796-2.799 5.281 21.943-9.037 1.904-7.251-9.292z" fill="#2A2B2A"/><path d="M121.615 86.641l.901-.974 13.407-3-.376.933-13.932 3.041z" fill="#2779B5"/><path d="M140.821 98.197a132.476 132.476 0 0 0-3.356 2.156l2.237-.861s1.566.972-2.352 3.239l-2.462 1.943s1.791 10.473-2.575 11.553L126.044 124l-.026-.026-7.582-7.637.518-.481 6.09-5.673s-2.912-10.041-2.912-11.014c0-.658.31-3.8.51-5.748a.256.256 0 0 1 .082-.163.281.281 0 0 1 .354-.023c.052.037.089.09.104.151l1.302 5.359s2.686-3.78 3.358-4c.673-.22 12.65-1.943 13.547-1.726.896.216 1.671 3.771-.568 5.178z" fill="#FABB9B"/><path d="M126.385 123.965l-1.214.83c-2.99-2.731-5.346-5.993-6.735-8.135l.778-.609-.526.469 7.693 7.444.004.001z" fill="#FABB9B"/><path opacity=".7" d="M116.846 114.462c.851.59 1.646 1.174 2.385 1.752l-.855.632c-.965-1.402-1.505-2.345-1.53-2.384zM127.974 127.179a28.475 28.475 0 0 1-3.179-2.318l1.38-.861c1.349 1.949 1.799 3.179 1.799 3.179z" fill="#E51F3B"/><path d="M162.23 78.692a28.738 28.738 0 0 1-.17 2.028c-.08.674-.185 1.345-.325 2.01a11.558 11.558 0 0 1-.576 1.955c-.126.318-.279.618-.405.93-.126.314-.252.629-.346.95-.206.642-.352 1.301-.435 1.97a7.816 7.816 0 0 0 .016 2.01 6.062 6.062 0 0 0 .602 1.904c.154.296.332.58.533.845.203.264.427.512.669.74.486.458 1.03.849 1.619 1.161.149.078.295.151.446.233l.223.127a1.5 1.5 0 0 1 .22.128l.209.148c.034.026.071.049.104.077l.096.085.19.174c.064.058.117.128.175.19.058.063.117.128.165.198l.148.212.072.108.062.113.126.227c.038.077.067.157.102.237.035.079.072.157.095.24.049.164.112.325.145.494.153.666.226 1.349.218 2.033 0 1.364-.176 2.712-.236 4.064-.017.339-.021.677-.014 1.022 0 .168.018.337.027.511.009.173.032.337.066.503l.046.247c.021.083.045.164.067.246l.034.121.045.119c.031.077.059.158.094.235.145.305.343.582.586.816a2.848 2.848 0 0 1-.605-.807c-.036-.077-.065-.158-.098-.235l-.048-.119-.037-.128c-.022-.082-.049-.163-.07-.245l-.054-.255c-.037-.166-.05-.336-.075-.505a4.11 4.11 0 0 1-.037-.511 12.87 12.87 0 0 1-.006-1.021c.043-1.358.209-2.709.19-4.061 0-.673-.077-1.344-.229-2-.033-.164-.095-.32-.143-.48-.023-.08-.063-.154-.093-.232a2.616 2.616 0 0 0-.1-.229l-.119-.218-.06-.109-.07-.102-.143-.204c-.046-.068-.107-.128-.16-.189-.053-.061-.106-.128-.167-.183l-.184-.164-.092-.083c-.032-.027-.067-.049-.1-.073l-.203-.143c-.277-.176-.575-.323-.884-.48a7.551 7.551 0 0 1-1.656-1.18 6.553 6.553 0 0 1-.685-.766 6.158 6.158 0 0 1-.543-.872 6.24 6.24 0 0 1-.611-1.954c-.193-1.363.018-2.752.446-4.04.105-.325.23-.639.36-.955.13-.317.286-.618.416-.926a11.74 11.74 0 0 0 .593-1.933c.151-.66.267-1.327.362-1.998.095-.67.168-1.334.212-2.01zM163.722 67.564a19.04 19.04 0 0 0-.072-2.638 20.33 20.33 0 0 0-.41-2.608 14.162 14.162 0 0 0-.805-2.507 9.768 9.768 0 0 0-.602-1.171 7.494 7.494 0 0 0-.768-1.067 5.609 5.609 0 0 0-2.099-1.542 6.034 6.034 0 0 0-2.581-.41 7.182 7.182 0 0 1-2.638-.368 6.593 6.593 0 0 1-2.261-1.383 13.89 13.89 0 0 1-1.741-2.002c-.525-.71-1.022-1.438-1.561-2.135a11.56 11.56 0 0 0-1.8-1.912 6.754 6.754 0 0 0-2.293-1.24 6.947 6.947 0 0 0-2.592-.306 7.834 7.834 0 0 0-2.537.636c-.806.35-1.566.798-2.261 1.335a11.972 11.972 0 0 0-1.903 1.806l-.102-.102a10.04 10.04 0 0 1 1.775-.98 8.445 8.445 0 0 1 1.941-.582 5.702 5.702 0 0 1 2.029.01c.671.13 1.305.41 1.854.815.537.422.968.963 1.256 1.581.287.61.516 1.244.686 1.895.183.645.343 1.296.541 1.932.183.64.451 1.254.796 1.824a3.612 3.612 0 0 0 1.44 1.325c.593.305 1.267.405 1.927.5 1.329.18 2.676.176 4.02.25.674.03 1.346.105 2.01.224.664.12 1.308.335 1.909.64a5.673 5.673 0 0 1 1.587 1.228c.447.501.827 1.058 1.131 1.656a7.677 7.677 0 0 0-1.144-1.644 5.634 5.634 0 0 0-1.589-1.211c-.6-.3-1.241-.51-1.903-.625a14.867 14.867 0 0 0-2.006-.203c-1.34-.061-2.689-.05-4.027-.23a11.79 11.79 0 0 1-.998-.17 4.156 4.156 0 0 1-.959-.334 3.72 3.72 0 0 1-1.484-1.358 7.604 7.604 0 0 1-.811-1.845c-.203-.64-.365-1.291-.548-1.934-.171-.645-.4-1.273-.685-1.876a4.239 4.239 0 0 0-1.224-1.536 4.476 4.476 0 0 0-1.807-.785 5.55 5.55 0 0 0-1.981 0 8.242 8.242 0 0 0-1.908.579 9.786 9.786 0 0 0-1.742.968l-.449.316.347-.419a12.092 12.092 0 0 1 1.926-1.838 10.667 10.667 0 0 1 2.288-1.362 7.978 7.978 0 0 1 2.589-.642 7.134 7.134 0 0 1 2.647.32 6.889 6.889 0 0 1 2.337 1.273 11.747 11.747 0 0 1 1.816 1.94c.539.702 1.035 1.432 1.557 2.142a13.679 13.679 0 0 0 1.719 1.992 6.436 6.436 0 0 0 2.224 1.367 7.058 7.058 0 0 0 2.592.375 6.134 6.134 0 0 1 2.62.424 5.72 5.72 0 0 1 2.128 1.572 8.545 8.545 0 0 1 1.367 2.267c.341.815.605 1.66.788 2.525.186.862.316 1.735.388 2.614.079.876.098 1.756.056 2.634z" fill="#1B2428"/><path d="M154.704 67.544l.561.02a.433.433 0 0 0 .202-.043.524.524 0 0 0 .172-.135.662.662 0 0 0 .115-.207.752.752 0 0 0 .041-.246v-5.892a.707.707 0 0 0-.151-.446.47.47 0 0 0-.364-.185.464.464 0 0 0-.342.16.685.685 0 0 0-.169.399l-.561 5.873a.77.77 0 0 0 .02.258c.021.083.056.16.103.226.046.066.104.12.168.157a.438.438 0 0 0 .205.06z" fill="url(#n)"/><path d="M152.196 67.522l.452.04c.236.023.444-.254.462-.609l.299-5.892c.017-.348-.155-.64-.385-.65-.212-.011-.402.22-.443.536l-.753 5.85c-.047.367.131.703.368.725z" fill="url(#o)"/><path d="M143.625 77.102h.064l.831-.093a.186.186 0 0 0 .115-.084.214.214 0 0 0 .029-.146c-.008-.117-.091-.21-.174-.194l-.832.092c-.242.028-.48-.104-.676-.37a2.14 2.14 0 0 1-.363-1.089l-.009-.127c-.024-.331.109-.619.295-.635.278-.03.524-.234.694-.57.169-.356.24-.757.205-1.156l-.137-1.79c-.01-.12-.101-.207-.177-.195a.19.19 0 0 0-.114.085.219.219 0 0 0-.03.146l.138 1.79c.028.303-.025.608-.153.879a.662.662 0 0 1-.185.252.595.595 0 0 1-.272.13c-.364.04-.625.534-.589 1.1l.01.127c.026.488.184.957.454 1.35.252.335.56.512.876.498z" fill="#FF806D"/><path d="M156.761 74.616c1.283-2.228.678-4.98-1.351-6.15s-4.715-.312-5.998 1.915c-1.283 2.227-.678 4.98 1.351 6.15s4.715.312 5.998-1.915z" fill="#FCA286"/><path d="M147.847 68.72c-.021.658.317 1.208.756 1.228.439.02.811-.498.832-1.156.021-.659-.318-1.208-.757-1.227-.438-.02-.811.496-.831 1.155z" fill="#352D29"/><path d="M149.436 68.583c.314-.195.59-.55.795-1.019 0 0-.22 1.043-.432 1.472-.212.43-.363-.453-.363-.453z" fill="#352D29"/><path d="M136.878 79.862c-.332.186-.69.328-1.062.42a56.078 56.078 0 0 1-.398-.9c-1.143-2.733-2.088-6.119-2.674-8.477 2.051-.566 4.408.385 5.62 2.428 1.408 2.36.744 5.287-1.486 6.53z" fill="#FCA286"/><path d="M138.991 70.334c.278.847.019 1.717-.579 1.945-.597.227-1.306-.279-1.583-1.126-.277-.847-.019-1.72.578-1.945.598-.226 1.306.277 1.584 1.126z" fill="#352D29"/><path d="M137.513 70.312a4.072 4.072 0 0 1-1.59-.363s.663.565 1.134.756c.471.191.456-.393.456-.393z" fill="#352D29"/><path d="M151.392 65.96c-.408.057-.909-.074-1.399-.179-.49-.104-.987-.219-1.42-.299-.432-.08-.933-.153-1.431-.228-.498-.075-1.006-.135-1.375-.334-.368-.2-.459-.56.04-.902.47-.334 1.613-.581 3.048-.317 1.435.263 2.432.912 2.777 1.396.365.5.153.813-.24.864zM134.79 67.563c.373-.012.806-.234 1.23-.428.424-.194.852-.399 1.229-.556.376-.158.815-.327 1.252-.485.438-.157.885-.306 1.183-.584.298-.278.323-.66-.18-.926-.478-.266-1.547-.325-2.797.197-1.25.521-2.045 1.367-2.274 1.928-.245.582-.006.871.357.854z" fill="#11191C"/><path d="M147.846 77.897s-3.435.921-5.564.705c0 0 2.019 5.144 3.827 3.858 1.807-1.286 1.737-4.563 1.737-4.563z" fill="#FF806D"/><path d="M195 26.889h-26.305a2.542 2.542 0 0 0-2.534 2.535V40.51L159.81 46.4l6.351-1.163v4.471a2.54 2.54 0 0 0 2.534 2.535H195a2.543 2.543 0 0 0 2.535-2.535V29.43A2.543 2.543 0 0 0 195 26.894" fill="#F7576E" style="mix-blend-mode:multiply" opacity=".55"/><path d="M194.514 25h-25.799c-.658.003-1.289.299-1.755.823a3 3 0 0 0-.731 1.976v12.245L160 46.547l6.229-1.286v4.94a3 3 0 0 0 .731 1.976c.466.524 1.097.82 1.755.823h25.799c.658-.003 1.289-.299 1.755-.823A3 3 0 0 0 197 50.2V27.805a3 3 0 0 0-.731-1.976c-.466-.525-1.097-.82-1.755-.823" fill="#FF5A61"/><path d="M185.977 33.389c-3.512.078-4.296 4.156-4.352 4.48-.054-.32-.842-4.33-4.351-4.48-3.097-.128-4.143 2.733-3.975 4.498.496 5.168 6.1 8.117 7.811 8.902a1.185 1.185 0 0 0 .991 0c1.716-.782 7.362-3.732 7.856-8.902.163-1.76-.803-4.57-3.98-4.498z" fill="#FBFBFB"/><path d="M329.327 69.116l8.052-5.92a19.989 19.989 0 0 1 .896-8.779 20.2 20.2 0 0 1 4.593-7.568c7.604-7.927 20.37-8.458 28.62-1.184a20.317 20.317 0 0 1 4.905 6.484 20.051 20.051 0 0 1 .633 15.849 20.263 20.263 0 0 1-4.373 6.845c-7.726 7.973-20.662 8.347-28.852.838a20.226 20.226 0 0 1-4.659-6.326l-9.389.857a.622.622 0 0 1-.635-.389.606.606 0 0 1 .209-.708z" fill="#FF5A61"/><path d="M371.203 60.99a12.716 12.716 0 0 0-21.858-8.626 12.711 12.711 0 0 0-2.525 13.904 12.714 12.714 0 0 0 11.878 7.653 12.717 12.717 0 0 0 12.505-12.932zm-1.976-.898l-.828.013a.96.96 0 0 0 .031 1.92l.823-.014a10.81 10.81 0 0 1-9.628 9.925l-.012-.795a.964.964 0 0 0-.976-.944.959.959 0 0 0-.944.976l.013.795a10.815 10.815 0 0 1-9.952-9.6l.822-.015a.959.959 0 1 0-.032-1.92l-.827.015a10.816 10.816 0 0 1 9.636-9.985l.014.855a.959.959 0 0 0 1.65.651.961.961 0 0 0 .27-.683l-.014-.854a10.817 10.817 0 0 1 9.954 9.66z" fill="#fff"/><path d="M366.781 56.974l-7.716 3.214-.009.029a.98.98 0 0 1-.093.182l1.819 5.49a.66.66 0 0 1-.063.519.734.734 0 0 1-.43.33.78.78 0 0 1-.553-.045.705.705 0 0 1-.363-.394l-1.819-5.488a1.074 1.074 0 0 1-.577-.562.987.987 0 0 1 .002-.782c.109-.25.317-.45.58-.56a1.17 1.17 0 0 1 .909.01l7.717-3.212a.771.771 0 0 1 .815.126.67.67 0 0 1 .231.49.656.656 0 0 1-.052.27.697.697 0 0 1-.158.23.74.74 0 0 1-.24.153z" fill="#F5F5F5"/><path fill-rule="evenodd" clip-rule="evenodd" d="M151.887 31.73a.731.731 0 0 1 1.46 0v1.718h1.718a.73.73 0 0 1 0 1.462h-1.721v1.718a.731.731 0 0 1-1.461 0v-1.721h-1.717a.729.729 0 0 1-.73-.73.73.73 0 0 1 .73-.731h1.717l.004-1.715zM453.757 168.54c0-.218.096-.427.267-.581a.971.971 0 0 1 .647-.241c.242 0 .475.087.646.241a.783.783 0 0 1 .268.581v1.933h2.142c.243 0 .475.086.646.24a.784.784 0 0 1 .268.582.78.78 0 0 1-.268.581.967.967 0 0 1-.646.241h-2.146v1.932a.784.784 0 0 1-.268.582.969.969 0 0 1-.646.241.971.971 0 0 1-.647-.241.783.783 0 0 1-.267-.582v-1.932h-2.147a.969.969 0 0 1-.646-.241.783.783 0 0 1-.268-.581c0-.218.097-.427.268-.582a.968.968 0 0 1 .646-.24h2.147l.004-1.933zM437.062 201.221a.913.913 0 0 1 1.827 0v2.147h2.146a.915.915 0 0 1 .646 1.56.915.915 0 0 1-.646.268h-2.146v2.147a.914.914 0 1 1-1.827 0v-2.147h-2.148a.914.914 0 0 1 0-1.828h2.148v-2.147zM65.855 106.632a.912.912 0 0 1 1.56-.646.912.912 0 0 1 .267.646v2.147h2.148a.914.914 0 1 1 0 1.827h-2.156v2.147a.914.914 0 1 1-1.827 0v-2.147h-2.139a.911.911 0 0 1-.913-.914.915.915 0 0 1 .913-.913h2.147v-2.147zM13.298 167.624a.779.779 0 0 1 .196-.497.599.599 0 0 1 .443-.204c.165 0 .324.073.443.204.119.13.19.308.196.497v1.718h1.503c.165.008.321.088.435.224a.789.789 0 0 1 .178.506c0 .189-.063.37-.178.506a.608.608 0 0 1-.434.224h-1.504v1.719a.833.833 0 0 1-.04.289.75.75 0 0 1-.137.247.637.637 0 0 1-.211.166.567.567 0 0 1-.502 0 .637.637 0 0 1-.21-.166.75.75 0 0 1-.137-.247.83.83 0 0 1-.041-.289v-1.719h-1.504a.567.567 0 0 1-.252-.046.639.639 0 0 1-.217-.156.758.758 0 0 1-.145-.241.823.823 0 0 1 0-.574.743.743 0 0 1 .145-.24.629.629 0 0 1 .217-.157.567.567 0 0 1 .252-.046h1.504v-1.718z" fill="#fff"/><path d="M38.154 130.116c.048 6.422 11.319 25.679 11.319 25.679S60.458 136.43 60.41 130.01c-.047-6.419-5.069-11.603-11.215-11.574-6.146.029-11.088 5.259-11.04 11.68zm6.124-.12c-.021-2.884 2.198-5.232 4.959-5.245 2.76-.012 5.015 2.314 5.036 5.198.021 2.885-2.2 5.233-4.959 5.245-2.76.013-5.009-2.318-5.03-5.198h-.006z" fill="#FF5A61"/><defs><linearGradient id="a" x1="230.512" y1="282.37" x2="230.512" y2="245.872" gradientUnits="userSpaceOnUse"><stop stop-color="#fff" stop-opacity=".6"/><stop offset="1" stop-color="#99ACB1"/></linearGradient><linearGradient id="b" x1="224.866" y1="10.892" x2="238.908" y2="248.565" gradientUnits="userSpaceOnUse"><stop stop-color="#188AAD" stop-opacity=".5"/><stop offset="1" stop-color="#188AAD"/></linearGradient><linearGradient id="c" x1="434.799" y1="242.88" x2="382.754" y2="186.613" gradientUnits="userSpaceOnUse"><stop stop-color="#FC7171"/><stop offset="1" stop-color="#FF4B58"/></linearGradient><linearGradient id="d" x1="29.41" y1="228.129" x2="87.436" y2="228.129" gradientUnits="userSpaceOnUse"><stop stop-color="#0FAADA"/><stop offset="1" stop-color="#98CBDB"/></linearGradient><linearGradient id="e" x1="37380.8" y1="101650" x2="47856.8" y2="101650" gradientUnits="userSpaceOnUse"><stop stop-color="#F45B5B"/><stop offset="1" stop-color="#F42432"/></linearGradient><linearGradient id="f" x1="184.596" y1="174.51" x2="267.396" y2="53.306" gradientUnits="userSpaceOnUse"><stop offset=".28" stop-color="#172652" stop-opacity=".6"/><stop offset=".45" stop-color="#162754" stop-opacity=".61"/><stop offset=".59" stop-color="#142C5B" stop-opacity=".65"/><stop offset=".71" stop-color="#136" stop-opacity=".71"/><stop offset=".82" stop-color="#0C3D77" stop-opacity=".79"/><stop offset=".92" stop-color="#064A8B" stop-opacity=".9"/><stop offset="1" stop-color="#00579F"/></linearGradient><linearGradient id="g" x1="245.253" y1="162.925" x2="236.636" y2="154.903" gradientUnits="userSpaceOnUse"><stop stop-color="#F87A5B"/><stop offset="1" stop-color="#FF344A"/></linearGradient><linearGradient id="h" x1="135.923" y1="151.025" x2="162.949" y2="151.025" gradientUnits="userSpaceOnUse"><stop stop-color="#172652" stop-opacity=".5"/><stop offset="1" stop-color="#17263F"/></linearGradient><linearGradient id="i" x1="131550" y1="92434.7" x2="170930" y2="92434.7" gradientUnits="userSpaceOnUse"><stop stop-color="#F87A5B"/><stop offset="1" stop-color="#FF344A"/></linearGradient><linearGradient id="j" x1="33981.8" y1="12537.5" x2="39025.5" y2="12537.5" gradientUnits="userSpaceOnUse"><stop stop-color="#172652" stop-opacity=".5"/><stop offset="1" stop-color="#17263F"/></linearGradient><linearGradient id="k" x1="80329.3" y1="27927.3" x2="107550" y2="27927.3" gradientUnits="userSpaceOnUse"><stop stop-color="#172652" stop-opacity=".5"/><stop offset="1" stop-color="#17263F"/></linearGradient><linearGradient id="l" x1="70949.1" y1="85752.2" x2="86044.5" y2="85752.2" gradientUnits="userSpaceOnUse"><stop stop-color="#172652" stop-opacity=".5"/><stop offset="1" stop-color="#17263F"/></linearGradient><linearGradient id="m" x1="103828" y1="65977.7" x2="93917.6" y2="76995.6" gradientUnits="userSpaceOnUse"><stop offset=".28" stop-color="#172652" stop-opacity=".6"/><stop offset=".45" stop-color="#162754" stop-opacity=".61"/><stop offset=".59" stop-color="#142C5B" stop-opacity=".65"/><stop offset=".71" stop-color="#136" stop-opacity=".71"/><stop offset=".82" stop-color="#0C3D77" stop-opacity=".79"/><stop offset=".92" stop-color="#064A8B" stop-opacity=".9"/><stop offset="1" stop-color="#00579F"/></linearGradient><linearGradient id="n" x1="2868.09" y1="6963.3" x2="2880.93" y2="6963.3" gradientUnits="userSpaceOnUse"><stop stop-color="#F87A5B"/><stop offset="1" stop-color="#FF344A"/></linearGradient><linearGradient id="o" x1="1080.6" y1="6898.86" x2="1088.56" y2="6899.29" gradientUnits="userSpaceOnUse"><stop stop-color="#F87A5B"/><stop offset="1" stop-color="#FF344A"/></linearGradient></defs></svg>