<svg width="469" height="279" viewBox="0 0 469 279" fill="none" xmlns="http://www.w3.org/2000/svg">
<path d="M454.667 279V272.767C454.667 262.602 418.959 254.359 374.912 254.359H86.1138C42.0662 254.359 6.35895 262.602 6.35895 272.767V279H454.667Z" fill="url(#paint0_linear)"/>
<path opacity="0.2" d="M405.38 90.1807C388.788 62.6371 359.125 44.2294 325.179 44.2294C315.989 44.2294 307.147 45.7153 298.698 48.1363C278.552 15.2799 242.89 0 202.097 0C146.672 0 100.442 33.8474 90.2039 87.4882C88.5484 87.3765 86.9221 87.176 85.2172 87.176C38.1639 87.176 0 126.232 0 174.32C0 222.469 38.1639 261.513 85.2172 261.513H383.715C430.805 261.513 468.974 222.469 468.974 174.32C468.974 133.867 441.999 99.9359 405.38 90.1807Z" fill="url(#paint1_linear)"/>
<g style="mix-blend-mode:multiply" opacity="0.32">
<path d="M391.369 261.387C379.707 261.387 369.439 262.088 363.551 263.146C339.825 260.347 274.71 258.333 198.097 258.333C101.422 258.333 23.0513 261.537 23.0513 265.487C23.0513 269.438 101.422 272.641 198.097 272.641C276.761 272.641 343.304 270.52 365.369 267.602C371.428 268.492 380.823 269.066 391.369 269.066C409.646 269.066 424.462 267.347 424.462 265.226C424.462 263.106 409.642 261.387 391.369 261.387Z" fill="#142948"/>
</g>
<path fill-rule="evenodd" clip-rule="evenodd" d="M385.46 169.308C375.929 166.892 362.614 161.822 350.16 151.198C332.513 136.145 371.708 144.171 403 157.812L389.573 167.792L385.46 169.308Z" fill="#0E2D34"/>
<path fill-rule="evenodd" clip-rule="evenodd" d="M351.897 126.514C356.536 134.047 369.654 150.087 382.065 166.761L397.561 178.051L403.795 168.463C396.905 145.951 386.082 121.886 374.698 108.059C354.723 83.8007 335.622 100.083 351.897 126.514Z" fill="#017EBE"/>
<path opacity="0.7" fill-rule="evenodd" clip-rule="evenodd" d="M397.436 177.581C386.147 140.769 355.645 105.255 355.535 105.125C355.485 105.065 355.423 105.016 355.352 104.981C355.282 104.946 355.206 104.927 355.127 104.924C355.049 104.92 354.971 104.934 354.898 104.962C354.826 104.991 354.76 105.035 354.705 105.091C354.59 105.207 354.522 105.362 354.514 105.526C354.506 105.689 354.558 105.85 354.662 105.977C354.771 106.103 384.78 141.055 396.127 177.315L397.13 178.051L397.436 177.581Z" fill="#0E2D34"/>
<path fill-rule="evenodd" clip-rule="evenodd" d="M410.568 85.8511C411.372 95.0017 410.661 115.815 410.615 137.534C405.909 145.112 403.66 166.384 395.445 169.308C388.247 146.871 378.431 106.356 379.196 88.0273C380.693 52.155 407.507 51.0184 410.568 85.8511Z" fill="#20C5D2"/>
<path fill-rule="evenodd" clip-rule="evenodd" d="M400.201 149.436C391.059 112.249 393.865 70.7985 393.877 70.6311C393.883 70.4494 393.963 70.2771 394.099 70.15C394.235 70.023 394.417 69.9509 394.607 69.9487C394.699 69.9536 394.789 69.9763 394.872 70.0155C394.955 70.0547 395.028 70.1096 395.088 70.1769C395.148 70.2441 395.193 70.3223 395.221 70.4067C395.248 70.4911 395.257 70.5799 395.248 70.6679C395.239 70.8404 392.466 111.807 401.41 148.609C401.014 148.891 400.613 149.173 400.201 149.436Z" fill="#094C69"/>
<path fill-rule="evenodd" clip-rule="evenodd" d="M456.359 133.071C451.073 139.495 437.386 152.506 423.559 166.521C415.67 168.451 400.688 180.789 393.462 177.496C403.009 158.447 422.329 126.057 434.471 114.687C458.241 92.4337 476.486 108.615 456.359 133.071Z" fill="#20C5D2"/>
<path fill-rule="evenodd" clip-rule="evenodd" d="M409.359 167.524C426.873 138.127 454.324 113.152 454.439 113.048C454.556 112.935 454.712 112.872 454.874 112.872C455.036 112.872 455.192 112.935 455.309 113.048C455.362 113.107 455.403 113.175 455.429 113.25C455.455 113.325 455.466 113.405 455.46 113.484C455.455 113.563 455.434 113.64 455.398 113.711C455.362 113.782 455.313 113.844 455.252 113.895C455.14 114 428.007 138.687 410.616 167.718C410.193 167.66 409.775 167.596 409.359 167.524Z" fill="#094C69"/>
<path fill-rule="evenodd" clip-rule="evenodd" d="M407.004 104.88C404.858 113.44 399.098 149.309 395.846 169.777L402.03 173.282L413.22 170.946C424.493 150.273 434.128 125.739 436.068 108C439.469 76.8769 414.532 74.8361 407.004 104.88Z" fill="#017EBE"/>
<path opacity="0.4" fill-rule="evenodd" clip-rule="evenodd" d="M402.144 173.166C420.502 139.089 424.444 92.1997 424.459 92.0278C424.467 91.9496 424.458 91.8706 424.433 91.7959C424.408 91.7213 424.368 91.6526 424.316 91.5945C424.263 91.5363 424.199 91.4898 424.127 91.4581C424.055 91.4264 423.978 91.4101 423.899 91.4103C423.734 91.4097 423.574 91.4708 423.451 91.5816C423.328 91.6924 423.251 91.8451 423.234 92.01C423.219 92.1794 419.338 138.32 401.41 172.046L401.589 173.282L402.144 173.166Z" fill="#0E2D34"/>
<path d="M434 170.132L433.364 173.772L425.429 263.832H425.001C422.988 265.231 414.003 266.282 403.223 266.282C398.694 266.282 394.481 266.096 390.969 265.773C389.929 265.676 388.951 265.573 388.041 265.458C383.713 264.9 381.01 264.11 381.01 263.234C381.01 263.029 381.163 262.829 381.438 262.636L372 170.103L434 170.132Z" fill="#FF6D7B"/>
<path d="M437.974 170.596V173.016C437.974 174.041 436.763 174.872 435.267 174.872H368.026V170.596C368.026 168.13 370.944 166.128 374.543 166.128H431.462C435.056 166.128 437.974 168.13 437.974 170.596Z" fill="#E92E35"/>
<path style="mix-blend-mode:darken" d="M437.974 170.343V172.624C437.974 173.592 436.763 174.374 435.267 174.374H434.539L433.903 177.856C433.903 177.856 391.156 228.633 388.117 264.692C383.791 264.159 381.09 263.403 381.09 262.564C381.09 262.368 381.243 262.176 381.518 261.992L372.103 174.37H368.026V170.339C368.026 168.015 370.944 166.128 374.543 166.128H431.462C435.056 166.132 437.974 168.019 437.974 170.343Z" fill="url(#paint2_linear)"/>
<path d="M36.7118 192.531C36.7894 192.061 36.8941 191.595 37.0255 191.136C37.3197 190.059 37.7021 189.005 38.169 187.985C39.5776 184.975 41.7635 182.29 44.8138 180.676C48.6682 178.638 53.7904 178.37 57.837 180.055C61.1357 181.427 63.5994 184.045 65.2795 187.038C66.2374 188.746 67.0198 190.549 67.418 192.531C67.6344 193.607 69.3504 193.152 69.1352 192.077C68.7792 190.311 68.0519 188.57 67.2349 186.96C65.6022 183.747 63.1218 180.826 59.8077 179.091C55.5819 176.872 50.1345 176.692 45.6769 178.409C41.9531 179.845 39.0577 182.614 37.2009 185.992C36.1765 187.862 35.3096 189.972 34.9882 192.077C34.919 192.536 35.1073 192.988 35.6105 193.126C36.028 193.242 36.6349 192.986 36.7054 192.531H36.7118Z" fill="#2489ED"/>
<path d="M43.0978 192.3C43.0284 192.81 43.113 192.243 43.1357 192.122C43.2 191.775 43.277 191.43 43.3616 191.086C43.6366 189.97 43.999 188.876 44.4456 187.814C45.6332 184.997 47.646 182.205 50.4615 180.594C53.8853 178.629 58.5092 178.367 62.0958 180.078C65.1183 181.518 67.2523 184.152 68.7099 187.043C69.5491 188.706 70.2786 190.614 70.6256 192.528C70.8212 193.607 72.5186 193.149 72.3167 192.073C71.9999 190.326 71.35 188.609 70.6142 186.995C69.1667 183.816 66.9406 180.84 63.8235 179.046C59.9694 176.828 54.9984 176.722 50.9297 178.45C47.5009 179.905 44.9504 182.792 43.3578 186.026C42.3899 187.99 41.6428 190.129 41.3386 192.3C41.2755 192.761 41.7879 193.149 42.222 193.154C42.7483 193.154 43.0373 192.755 43.0991 192.3H43.0978Z" fill="#3EA3FF"/>
<path d="M87.4359 265.487H29.4103L33.0767 190.769H79.864C80.9714 190.769 81.8871 191.748 81.9536 193L86.3131 250.64L87.4359 265.487Z" fill="url(#paint3_linear)"/>
<path d="M33.3846 190.769H27.8677C26.6188 190.769 25.5754 191.868 25.4707 193.301L19.8718 265.487H29.7753L33.3846 190.769Z" fill="#007EA5"/>
<path d="M62.5111 215.71C63.0578 212.132 65.3537 208.597 68.5299 206.922C71.4264 205.388 75.1932 205.224 78.2189 206.464C80.6164 207.447 82.476 209.385 83.7362 211.632C84.4446 212.895 85.0377 214.272 85.3274 215.71C85.5004 216.568 86.7982 216.205 86.6252 215.346C85.8327 211.418 83.1869 207.48 79.6509 205.64C76.4772 203.988 72.4521 203.861 69.1343 205.161C66.4396 206.216 64.2841 208.234 62.8797 210.777C62.1098 212.167 61.4578 213.759 61.2145 215.349C61.0829 216.207 62.3794 216.577 62.5123 215.712L62.5111 215.71Z" fill="#B72137"/>
<path d="M104.128 267.872H56.4359L59.4486 213.821H97.904C98.3423 213.82 98.7642 213.987 99.0835 214.287C99.4028 214.587 99.5954 214.998 99.6219 215.435L103.203 257.132L104.128 267.872Z" fill="#FF6D7B"/>
<path d="M59.6154 213.821H55.0745C54.5782 213.82 54.0998 214.008 53.7336 214.347C53.3673 214.686 53.1398 215.151 53.0957 215.651L48.4872 267.872H56.639L59.6154 213.821Z" fill="#E92E35"/>
<path style="mix-blend-mode:darken" d="M103.333 257.539C81.157 249.763 70.594 225.263 66.7692 213.821H97.9925C98.434 213.82 98.859 213.988 99.1807 214.291C99.5023 214.594 99.6963 215.009 99.723 215.45L103.333 257.539Z" fill="url(#paint4_linear)"/>
<path d="M66.4854 215.71C67.0322 212.132 69.3281 208.597 72.5043 206.922C75.4009 205.388 79.1677 205.224 82.1934 206.464C84.5909 207.447 86.4568 209.385 87.7107 211.632C88.4192 212.895 89.0123 214.272 89.302 215.71C89.475 216.568 90.7716 216.205 90.5998 215.346C89.8073 211.418 87.1615 207.48 83.6242 205.64C80.4505 203.988 76.4266 203.861 73.1087 205.161C70.414 206.216 68.2585 208.234 66.8541 210.777C66.0842 212.167 65.4309 213.759 65.1889 215.349C65.0572 216.207 66.3538 216.577 66.4867 215.712L66.4854 215.71Z" fill="#D83545"/>
<path d="M372.795 189.974H101.744L118.016 124.948C118.815 117.105 122.118 110.274 126.906 105.531C131.308 101.165 136.967 98.5641 143.088 98.5641H329.538C341.842 98.5641 352.357 109.098 354.428 123.501L372.795 189.974Z" fill="#188AAD"/>
<path d="M367.231 189.974H101.744L110.098 156.45L117.982 124.827C118.637 118.363 120.986 112.587 124.457 108.095C125.196 107.137 125.996 106.228 126.853 105.375C130.439 103.054 134.541 101.744 138.873 101.744H324.974C337.257 101.744 347.752 112.293 349.818 126.721L367.231 189.974Z" fill="#1BA7BE"/>
<g style="mix-blend-mode:multiply" opacity="0.55">
<path d="M371.384 153.41C371.384 153.41 350.578 161 342.364 176.985H132.391C132.391 176.985 126.806 154.602 107.308 154.88V193.949H373.59L371.384 153.41Z" fill="#D4D4D4"/>
</g>
<path d="M365.474 248.795H113.833C109.351 248.795 105.718 252.507 105.718 257.087V258.785C105.718 263.365 109.351 267.077 113.833 267.077H365.474C369.956 267.077 373.59 263.365 373.59 258.785V257.087C373.59 252.507 369.956 248.795 365.474 248.795Z" fill="#006888"/>
<path d="M401.956 177.364C400.978 183.416 400.338 190.061 399.561 196.962C397.955 211.244 395.769 226.627 388.813 240.132C383.906 249.674 375.767 255.154 367.228 255.154H107.454C98.9136 255.154 90.7819 249.674 85.8679 240.132C77.7627 224.397 76.0297 206.11 74.204 189.988C73.707 185.587 73.2024 181.346 72.5558 177.364C70.1039 162.191 71.5416 147.846 82.9202 147.846H88.8865C99.5754 147.846 109.698 154.723 115.983 166.536C120.482 174.995 122.703 185.913 122.703 185.913L237.338 188.41L344.534 186.083L351.969 185.921C351.969 185.921 352.636 182.644 353.978 178.291C355.085 174.696 356.656 170.366 358.689 166.54C361.267 161.698 364.487 157.684 368.128 154.635C373.368 150.245 379.479 147.85 385.786 147.85H391.755C398.608 147.85 401.796 153.057 402.71 160.515C403.315 165.433 402.93 171.333 401.956 177.364Z" fill="#1BA7BE"/>
<path d="M360.993 221.769H114.34C110.895 221.769 108.103 218.01 108.103 213.374C108.103 198.695 116.945 186.795 127.853 186.795H349.496C359.291 186.795 367.231 197.481 367.231 210.663V213.374C367.233 218.01 364.445 221.769 360.993 221.769Z" fill="#006888"/>
<path d="M120.817 185.205C120.817 185.205 121.749 141.12 94.0774 140.697C66.4054 140.273 72.0028 170.793 72.0028 170.793L120.817 185.205Z" fill="#28B1CD"/>
<path d="M402.497 170.79L363.954 182.178L353.722 185.205C353.722 185.205 353.662 182.377 354.022 178.141C355.086 165.692 359.797 141.094 380.423 140.696H380.53C397.405 140.444 401.881 151.631 402.794 160.438C403.146 163.887 403.046 167.367 402.497 170.79Z" fill="#28B1CD"/>
<path d="M110.883 169.296C111.454 174.473 111.405 178.787 111.022 182.505C109.562 196.686 103.247 202.183 108.012 213.82L130.136 188.884L130.359 186.26L122.936 186.097C122.936 186.097 122.271 182.808 120.929 178.438C119.868 165.887 115.168 141.093 94.5897 140.692C98.2608 143.093 103.25 147.431 106.801 154.687C108.731 158.638 110.237 163.453 110.883 169.296Z" fill="#006888"/>
<path d="M236.077 193.389V209.608C236.077 213.691 233.644 217 230.644 217H117.51C114.508 217 112.077 213.691 112.077 209.608C112.077 204.32 112.682 199.44 114.04 195.504C114.344 194.618 114.704 193.752 115.118 192.912C117.237 188.639 120.551 186 125.353 186H230.65C233.177 186 235.307 188.354 235.911 191.539C236.024 192.15 236.08 192.769 236.077 193.389Z" fill="#1BA7BE"/>
<path d="M364.451 169.296C363.881 174.473 363.93 178.787 364.312 182.505C365.773 196.686 372.087 202.183 367.323 213.82L345.198 188.884L344.974 186.26L352.399 186.097C352.399 186.097 353.063 182.808 354.405 178.438C355.466 165.887 360.166 141.093 380.744 140.692C377.072 143.093 372.085 147.431 368.534 154.687C366.604 158.638 365.102 163.453 364.451 169.296Z" fill="#006888"/>
<path d="M363.256 209.609C363.256 211.649 362.646 213.504 361.658 214.836C360.671 216.168 359.311 217 357.806 217H243.913C240.903 217 238.462 213.691 238.462 209.609V193.391C238.461 192.77 238.518 192.15 238.634 191.539C239.24 188.354 241.375 186 243.913 186H349.56C357.129 186 361.265 192.543 362.685 201.683C363.078 204.307 363.269 206.956 363.256 209.609Z" fill="#1BA7BE"/>
<path d="M399.821 196.95C398.212 211.236 396.022 226.622 389.054 240.129C384.14 249.673 375.987 255.154 367.434 255.154H107.228C98.6738 255.154 90.5285 249.673 85.6063 240.129C77.4878 224.391 75.7518 206.1 73.9231 189.974C74.2444 191.432 74.5733 193.065 74.9086 194.889C83.9745 244.126 93.8303 246.787 102.108 249.892C110.385 252.997 355.57 249.005 372.52 244.571C389.469 240.138 399.719 196.223 399.719 196.223L399.821 196.95Z" fill="#006888"/>
<g style="mix-blend-mode:multiply" opacity="0.55">
<path d="M362.461 202.692C362.254 202.425 361.975 201.918 361.615 201.139C356.45 189.983 341.486 191.896 341.486 191.896H237.667C238.277 188.504 240.424 186 242.978 186H349.26C356.873 186 361.035 192.963 362.461 202.692Z" fill="#D4D4D4"/>
</g>
<g style="mix-blend-mode:multiply" opacity="0.55">
<path d="M236.872 191.833H194.972C194.972 191.833 194.164 201.893 193.762 204.637C193.36 207.38 186.508 216.526 183.68 216.983C180.852 217.439 180.455 208.752 180.455 208.752C180.455 208.752 179.648 188.632 155.052 196.862C135.367 203.45 119.292 198.322 113.667 196.01C113.973 195.079 114.336 194.167 114.755 193.281C116.898 188.783 120.251 186 125.097 186H231.548C234.111 186 236.257 188.478 236.872 191.833Z" fill="#D4D4D4"/>
</g>
<g style="mix-blend-mode:multiply" opacity="0.55">
<path d="M146.256 158.18L123.902 157.726L107.308 150.865L116.298 118.22C117.045 111.547 119.722 105.585 123.683 100.949L140.78 115.018L146.256 158.18Z" fill="#BBBCBB"/>
</g>
<path style="mix-blend-mode:screen" d="M230.973 18.6296L114.086 45.3801C114.086 45.3801 55.1887 189.477 166.851 235.091C277.694 280.373 331.462 191.986 331.462 191.986L303.018 23.2558C302.812 21.8676 302.111 20.6004 301.045 19.6868C299.978 18.7733 298.618 18.2745 297.213 18.2822L230.973 18.6296Z" fill="url(#paint5_linear)"/>
<path d="M308.191 16H234.809C231.048 16 228 19.4826 228 23.7785V179.221C228 183.517 231.048 187 234.809 187H308.191C311.952 187 315 183.517 315 179.221V23.7785C315 19.4826 311.952 16 308.191 16Z" fill="#2A2B2B"/>
<path d="M302.191 16H228.809C225.048 16 222 19.4826 222 23.7785V179.221C222 183.517 225.048 187 228.809 187H302.191C305.952 187 309 183.517 309 179.221V23.7785C309 19.4826 305.952 16 302.191 16Z" fill="#444444"/>
<path d="M313 38.4002C313 37.6269 312.552 37 312 37C311.448 37 311 37.6269 311 38.4002V61.5998C311 62.3731 311.448 63 312 63C312.552 63 313 62.3731 313 61.5998V38.4002Z" fill="#444444"/>
<path d="M313 66.4002C313 65.6269 312.552 65 312 65C311.448 65 311 65.6269 311 66.4002V89.5999C311 90.3731 311.448 91 312 91C312.552 91 313 90.3731 313 89.5999V66.4002Z" fill="#444444"/>
<path d="M303.131 18.0064C304.157 18.0067 305.141 18.4721 305.867 19.3003C306.592 20.1284 307 21.2515 307 22.4225V176.268C307 179.971 304.141 183 300.649 183H230.351C226.856 183 224 179.971 224 176.268V24.7394C224 21.0365 226.859 18 230.351 18L303.131 18.0064Z" fill="white"/>
<path d="M307 22.4625V42.926L224 129V95.0022L298.412 18H303.107C303.618 18 304.125 18.1154 304.597 18.3397C305.069 18.564 305.499 18.8927 305.86 19.3071C306.222 19.7215 306.508 20.2135 306.704 20.7549C306.9 21.2963 307 21.8765 307 22.4625Z" fill="#E9FAFF"/>
<path d="M224 142.713L307 60V79.0193L224 165V142.713Z" fill="#E9FAFF"/>
<path d="M307 130V176.228C307 179.952 304.135 183 300.638 183H255L307 130Z" fill="#E9FAFF"/>
<path d="M279 18L224 72V58.751L269.379 18H279Z" fill="#E9FAFF"/>
<path d="M229.718 17.4872L232.77 23.7634C233.267 24.7848 234.327 25.4359 235.492 25.4359H293.48C294.826 25.4359 296.01 24.5687 296.376 23.3126L298.077 17.4872H229.718Z" fill="#444444"/>
<path d="M292.568 40H238.432C235.984 40 234 42.2994 234 45.1359V107.864C234 110.701 235.984 113 238.432 113H292.568C295.016 113 297 110.701 297 107.864V45.1359C297 42.2994 295.016 40 292.568 40Z" fill="white"/>
<path d="M297 95V108.656C297 111.046 295.005 113 292.568 113H238.432C235.994 113 234 111.046 234 108.656V95H297Z" fill="#2779B5"/>
<path d="M295.9 150C296.987 150 298.03 150.43 298.799 151.195C299.568 151.96 300 152.998 300 154.079V162.139C300 164.262 297.846 166 295.219 166H236.781C234.15 166 232 164.262 232 162.139V154.079C232 152.997 232.432 151.96 233.202 151.195C233.971 150.43 235.014 150 236.101 150H295.9Z" fill="#2779B5"/>
<path d="M239 132C240.657 132 242 130.657 242 129C242 127.343 240.657 126 239 126C237.343 126 236 127.343 236 129C236 130.657 237.343 132 239 132Z" fill="#2779B5"/>
<path d="M239 141C240.657 141 242 139.657 242 138C242 136.343 240.657 135 239 135C237.343 135 236 136.343 236 138C236 139.657 237.343 141 239 141Z" fill="#2779B5"/>
<path d="M293.829 127H245.171C244.524 127 244 127.646 244 128.444V128.556C244 129.354 244.524 130 245.171 130H293.829C294.476 130 295 129.354 295 128.556V128.444C295 127.646 294.476 127 293.829 127Z" fill="#2779B5"/>
<path d="M293.829 136H245.171C244.524 136 244 136.646 244 137.444V137.556C244 138.354 244.524 139 245.171 139H293.829C294.476 139 295 138.354 295 137.556V137.444C295 136.646 294.476 136 293.829 136Z" fill="#2779B5"/>
<path d="M275.752 59.9822C275.591 60.2488 275.359 60.441 275.095 60.5267C274.467 60.7335 273.702 60.2746 273.559 59.4755C273.49 59.1286 273.401 58.7883 273.291 58.457C273.27 58.3914 273.247 58.3309 273.226 58.2578C273.147 58.0536 273.071 57.8507 272.986 57.6502C272.799 57.2083 272.59 56.781 272.358 56.3708C272.298 56.2624 272.236 56.159 272.173 56.0532L272.131 55.9813L272.116 55.9611C271.984 55.7746 271.857 55.583 271.72 55.4015C271.391 54.9706 271.035 54.5703 270.656 54.204L270.634 54.1851C270.593 54.151 270.553 54.1145 270.511 54.0779C270.413 53.9935 270.313 53.9115 270.212 53.8334C269.989 53.6569 269.758 53.4931 269.52 53.3405C269.373 53.2464 269.223 53.1561 269.071 53.0695C269.009 53.0342 268.946 53.0002 268.882 52.9674H268.875C268.601 52.8414 268.321 52.7153 268.038 52.6132C266.648 52.109 265.423 51.983 263.927 52.0951C263.312 52.1283 262.702 52.2433 262.108 52.438C261.794 52.5346 261.483 52.6503 261.178 52.7846C261.136 52.8036 260.957 52.8905 260.931 52.9006C260.816 52.9611 260.701 53.0267 260.591 53.091C260.151 53.3552 259.731 53.6639 259.335 54.0136C259.335 54.0131 259.334 54.0128 259.333 54.0128C259.332 54.0128 259.331 54.0131 259.33 54.0136C259.306 54.0401 259.121 54.2166 259.084 54.2531C259 54.3414 258.917 54.4296 258.834 54.5216C258.666 54.712 258.503 54.9099 258.348 55.1166C258.229 55.2716 258.116 55.433 258.007 55.5969C257.985 55.6334 257.895 55.7759 257.866 55.8263C257.811 55.9208 257.756 56.0166 257.703 56.1137C257.484 56.5144 257.286 56.9307 257.109 57.3603C257.057 57.4864 256.853 58.0902 256.956 57.7561C256.911 57.8923 256.864 58.0271 256.822 58.1658C256.73 58.4671 256.649 58.7708 256.578 59.0797C256.528 59.3003 256.48 59.5259 256.446 59.754C256.438 59.8032 256.432 59.8536 256.425 59.9028C256.41 60.032 256.375 60.1566 256.321 60.2696C256.057 60.8381 255.379 61.1167 254.891 60.9541C254.184 60.7196 253.922 59.9053 254.02 59.1036C254.032 58.9914 254.048 58.8818 254.066 58.7696C254.275 57.4662 254.763 56.1641 255.315 55.0448C256.512 52.625 258.373 50.786 260.577 49.8464C263.388 48.6287 266.853 48.7384 269.62 50.0884C271.754 51.1241 273.556 52.9572 274.761 55.3183C275.284 56.3368 275.753 57.504 275.966 58.6801C276.008 58.9031 276.011 59.1344 275.974 59.3588C275.937 59.5832 275.861 59.7956 275.752 59.9822Z" fill="#3F93E8"/>
<path d="M274.997 59.8742C274.836 60.1408 274.604 60.333 274.34 60.4188C273.712 60.6255 272.947 60.1667 272.804 59.3675C272.735 59.0206 272.645 58.6802 272.536 58.3489C272.515 58.2834 272.492 58.2228 272.471 58.1497C272.391 57.9455 272.315 57.7426 272.23 57.5421C272.043 57.1002 271.833 56.6728 271.602 56.2626C271.541 56.1542 271.48 56.0509 271.417 55.945L271.375 55.8731L271.359 55.8529C271.227 55.6664 271.101 55.4748 270.964 55.2933C270.634 54.8624 270.279 54.4621 269.899 54.0957L269.877 54.0768C269.835 54.0428 269.796 54.0062 269.754 53.9696C269.655 53.8852 269.556 53.8032 269.454 53.7251C269.231 53.5486 269 53.3847 268.763 53.2322C268.615 53.1381 268.465 53.0477 268.313 52.9612C268.25 52.9259 268.188 52.8918 268.124 52.8591H268.117C267.843 52.733 267.562 52.607 267.28 52.5048C265.889 52.0006 264.663 51.8746 263.166 51.9867C262.551 52.02 261.941 52.135 261.346 52.3296C261.032 52.4262 260.721 52.542 260.416 52.6763C260.373 52.6952 260.194 52.7822 260.168 52.7923C260.053 52.8528 259.939 52.9183 259.828 52.9826C259.388 53.2469 258.968 53.5556 258.572 53.9054C258.548 53.9318 258.362 54.1083 258.326 54.1449C258.241 54.2331 258.158 54.3213 258.076 54.4134C257.907 54.6037 257.744 54.8016 257.589 55.0084C257.47 55.1634 257.357 55.3248 257.248 55.4886C257.226 55.5252 257.136 55.6677 257.107 55.7181C257.052 55.8126 256.997 55.9084 256.943 56.0055C256.725 56.4062 256.527 56.8226 256.35 57.2522C256.298 57.3783 256.093 57.9821 256.196 57.648C256.151 57.7842 256.104 57.919 256.062 58.0577C255.97 58.359 255.889 58.6628 255.818 58.9716C255.768 59.1922 255.72 59.4179 255.686 59.646C255.648 59.7898 255.612 59.9347 255.582 60.0797L255.563 60.1616C255.507 60.4055 255.462 60.6529 255.429 60.9028C255.331 61.7121 254.48 62.1483 253.892 61.9542C253.185 61.7197 252.922 60.9054 253.02 60.1036C253.081 59.6141 253.177 59.1317 253.306 58.6615C253.563 57.7483 253.902 56.8713 254.315 56.0458C255.513 53.6255 257.376 51.786 259.582 50.8459C262.394 49.6295 265.861 49.7379 268.63 51.088C270.77 52.1182 272.579 53.9494 273.791 56.3118C274.314 57.3304 274.785 58.4977 274.997 59.6738C275.001 59.7405 275.001 59.8075 274.997 59.8742Z" fill="#1CB3E2"/>
<path d="M286.88 87H245.127C244.641 87.0007 244.161 86.8655 243.727 86.6051C243.292 86.3446 242.914 85.9662 242.623 85.4998C242.332 85.0335 242.135 84.4921 242.049 83.9188C241.963 83.3454 241.99 82.756 242.128 82.1973L247.383 60.8179C247.573 60.045 247.966 59.3662 248.504 58.8825C249.041 58.3987 249.695 58.1358 250.367 58.1328L274.742 58.0235L279.757 58C280.385 57.9971 280.999 58.2213 281.519 58.6431C282.039 59.065 282.441 59.6651 282.673 60.365L289.78 81.8771C289.968 82.4446 290.037 83.0585 289.981 83.6653C289.926 84.2722 289.747 84.8535 289.461 85.3587C289.175 85.8638 288.791 86.2775 288.341 86.5635C287.891 86.8496 287.389 86.9995 286.88 87Z" fill="#0FA1CF"/>
<path d="M281.854 87H245.154C244.664 87.0007 244.18 86.8654 243.742 86.6047C243.303 86.3441 242.922 85.9653 242.628 85.4986C242.334 85.0319 242.136 84.4901 242.05 83.9163C241.963 83.3425 241.99 82.7525 242.129 82.1934L247.43 60.7967C247.621 60.0232 248.018 59.3438 248.56 58.8597C249.102 58.3755 249.761 58.1124 250.439 58.1094L275.026 58C275.595 58.0742 276.137 58.3317 276.592 58.7449C277.047 59.1581 277.399 59.7112 277.609 60.3447L284.779 81.8742C284.968 82.442 285.037 83.0562 284.981 83.6632C284.925 84.2703 284.745 84.8518 284.457 85.3572C284.168 85.8625 283.781 86.2764 283.327 86.5627C282.873 86.849 282.368 86.9992 281.854 87Z" fill="#4EBBE8"/>
<path d="M262.7 73.9038V77.4983H261.695V68.855H264.066C265.126 68.855 265.908 69.058 266.413 69.4639C266.921 69.8699 267.175 70.4808 267.175 71.2966C267.175 72.4396 266.596 73.2121 265.437 73.6141L267.784 77.4983H266.596L264.503 73.9038H262.7ZM262.7 73.0407H264.077C264.787 73.0407 265.307 72.9007 265.638 72.6209C265.969 72.3371 266.135 71.9134 266.135 71.3498C266.135 70.7783 265.965 70.3665 265.626 70.1142C265.291 69.862 264.751 69.7359 264.006 69.7359H262.7V73.0407Z" fill="white"/>
<path fill-rule="evenodd" clip-rule="evenodd" d="M270.306 73.0635C270.306 77.0149 267.103 80.2181 263.151 80.2181C261.976 80.2181 260.867 79.9349 259.889 79.4329C259.818 79.3963 259.739 79.3763 259.659 79.3763C259.196 79.3763 259.021 79.9279 259.431 80.1437C260.542 80.7287 261.808 81.0599 263.151 81.0599C267.568 81.0599 271.148 77.4798 271.148 73.0635C271.148 68.6472 267.568 65.0671 263.151 65.0671C261.808 65.0671 260.543 65.3982 259.432 65.9831C259.022 66.1988 259.197 66.7505 259.66 66.7505C259.74 66.7505 259.818 66.7304 259.89 66.6939C260.868 66.192 261.976 65.9089 263.151 65.9089C267.103 65.9089 270.306 69.1121 270.306 73.0635Z" fill="white"/>
<rect x="256.842" y="68.855" width="5.26918" height="0.992759" fill="white"/>
<rect x="256" y="72.5884" width="6.1109" height="0.992759" fill="white"/>
<path d="M256.867 76.5312H262.699V77.5558H256.867V76.5312Z" fill="white"/>
<path d="M248.779 62.5541L247.03 70.016C246.798 71.003 247.987 71.4235 248.219 70.4405L249.97 62.984C250.202 61.997 249.012 61.5765 248.781 62.5595L248.779 62.5541Z" fill="#FAFBFC"/>
<path d="M246.718 72.516L246.031 75.0911C245.788 76.0019 247.04 76.3917 247.282 75.4834L247.969 72.9095C248.212 71.9975 246.961 71.609 246.718 72.516Z" fill="#FAFBFC"/>
<path d="M274.231 58.4239C274.23 58.5292 274.164 58.6299 274.048 58.7042C273.932 58.7785 273.775 58.8203 273.611 58.8205H256.566C256.402 58.8203 256.245 58.7784 256.13 58.7041C256.014 58.6298 255.949 58.529 255.949 58.4239C255.949 58.3186 256.014 58.2177 256.13 58.1431C256.245 58.0685 256.402 58.0263 256.566 58.0256H273.611C273.775 58.0259 273.933 58.0679 274.049 58.1425C274.165 58.2172 274.23 58.3183 274.231 58.4239Z" fill="#0D6099"/>
<path d="M269.462 58.4239C269.461 58.5291 269.397 58.6298 269.283 58.7042C269.17 58.7785 269.017 58.8203 268.856 58.8205H256.553C256.393 58.8203 256.239 58.7784 256.126 58.7041C256.013 58.6298 255.949 58.529 255.949 58.4239C255.949 58.3186 256.013 58.2177 256.126 58.1431C256.239 58.0685 256.392 58.0263 256.553 58.0256H268.854C269.015 58.0256 269.169 58.0676 269.283 58.1422C269.397 58.2169 269.461 58.3182 269.462 58.4239Z" fill="#1B73BC"/>
<path d="M244.994 158.496C244.995 159.368 244.743 160.221 244.267 160.952C243.792 161.684 243.115 162.261 242.317 162.614C241.52 162.968 240.637 163.082 239.776 162.942C238.915 162.803 238.113 162.417 237.467 161.83V161.823C236.914 161.319 236.496 160.684 236.25 159.977C236.004 159.27 235.938 158.512 236.059 157.774C236.18 157.035 236.483 156.338 236.941 155.746C237.4 155.153 237.998 154.685 238.683 154.383C239.369 154.081 240.118 153.954 240.865 154.015C241.611 154.075 242.33 154.321 242.958 154.73C243.585 155.139 244.1 155.698 244.457 156.356C244.813 157.015 245 157.752 245 158.5L244.994 158.496Z" fill="url(#paint6_linear)"/>
<path d="M242.445 158H237.555C237.248 158 237 158.224 237 158.5V158.5C237 158.776 237.248 159 237.555 159H242.445C242.752 159 243 158.776 243 158.5V158.5C243 158.224 242.752 158 242.445 158Z" fill="white"/>
<path d="M241 160.445V155.555C241 155.248 240.776 155 240.5 155H240.5C240.224 155 240 155.248 240 155.555V160.445C240 160.752 240.224 161 240.5 161H240.5C240.776 161 241 160.752 241 160.445Z" fill="white"/>
<path d="M253 160.531C253 160.595 252.986 160.658 252.959 160.715C252.932 160.773 252.892 160.823 252.843 160.864C252.744 160.952 252.617 161.001 252.484 161C252.395 161 252.308 160.974 252.233 160.926C252.152 160.875 252.089 160.8 252.053 160.711L251.684 159.885H249.323L248.955 160.711C248.918 160.799 248.856 160.874 248.776 160.926C248.701 160.975 248.612 161.001 248.522 161C248.389 161 248.26 160.952 248.16 160.864C248.11 160.824 248.07 160.774 248.042 160.716C248.014 160.658 248 160.595 248 160.531C248.003 160.453 248.022 160.377 248.056 160.307L249.936 156.336C249.985 156.231 250.066 156.145 250.167 156.088C250.268 156.03 250.382 156 250.498 156C250.615 156 250.729 156.03 250.829 156.088C250.931 156.148 251.013 156.236 251.066 156.341L252.947 160.311C252.979 160.38 252.997 160.455 253 160.531ZM249.69 159.054H251.313L250.505 157.23L249.69 159.054Z" fill="white"/>
<path d="M254.12 160.864C254.079 160.813 254.047 160.752 254.027 160.686C254.007 160.621 253.999 160.551 254.003 160.482V156.52C253.996 156.45 254.003 156.38 254.023 156.313C254.044 156.247 254.077 156.187 254.12 156.137C254.164 156.087 254.217 156.05 254.275 156.026C254.333 156.003 254.395 155.995 254.456 156.003H255.705C256.13 155.99 256.552 156.092 256.936 156.301C257.27 156.487 257.546 156.786 257.725 157.158C257.916 157.57 258.01 158.031 257.999 158.497C258.01 158.963 257.917 159.425 257.728 159.839C257.551 160.213 257.276 160.514 256.942 160.701C256.555 160.91 256.13 161.012 255.702 160.999H254.456C254.395 161.003 254.334 160.994 254.276 160.97C254.218 160.947 254.165 160.911 254.12 160.864ZM257.036 158.497C257.036 157.43 256.57 156.896 255.638 156.896H254.97V160.106H255.638C256.573 160.106 257.04 159.569 257.04 158.497H257.036Z" fill="white"/>
<path d="M259.12 160.864C259.079 160.813 259.047 160.752 259.027 160.686C259.007 160.621 258.999 160.551 259.003 160.482V156.52C258.996 156.45 259.003 156.38 259.023 156.313C259.044 156.247 259.077 156.187 259.12 156.137C259.164 156.087 259.217 156.05 259.275 156.026C259.333 156.003 259.395 155.995 259.456 156.003H260.706C261.131 155.99 261.553 156.092 261.936 156.301C262.27 156.487 262.546 156.786 262.726 157.158C262.916 157.57 263.01 158.031 262.999 158.497C263.01 158.963 262.917 159.425 262.728 159.839C262.551 160.213 262.276 160.514 261.942 160.701C261.555 160.91 261.131 161.012 260.703 160.999H259.453C259.393 161.003 259.332 160.993 259.275 160.97C259.217 160.947 259.165 160.911 259.12 160.864ZM262.035 158.497C262.035 157.43 261.569 156.896 260.637 156.896H259.97V160.106H260.637C261.569 160.106 262.035 159.569 262.035 158.497Z" fill="white"/>
<path d="M267.64 160.851C267.594 160.8 267.558 160.738 267.534 160.67C267.511 160.602 267.5 160.53 267.503 160.457V156.894H266.472C266.157 156.894 266 156.744 266 156.444C266 156.144 266.157 155.996 266.472 156H269.528C269.843 156 270 156.148 270 156.444C270 156.74 269.843 156.89 269.528 156.894H268.496V160.457C268.499 160.53 268.489 160.602 268.466 160.67C268.443 160.737 268.408 160.799 268.362 160.851C268.314 160.902 268.257 160.941 268.195 160.967C268.133 160.992 268.066 161.003 268 160.999C267.934 161.003 267.868 160.992 267.806 160.966C267.744 160.941 267.688 160.902 267.64 160.851Z" fill="white"/>
<path d="M271.174 160.693C270.801 160.49 270.499 160.187 270.306 159.822C270.104 159.406 270 158.954 270 158.497C270 158.039 270.104 157.587 270.306 157.172C270.499 156.807 270.801 156.505 271.174 156.304C271.584 156.104 272.039 156 272.5 156C272.961 156 273.416 156.104 273.826 156.304C274.2 156.505 274.502 156.807 274.694 157.172C274.896 157.587 275 158.039 275 158.497C275 158.954 274.896 159.406 274.694 159.822C274.502 160.187 274.2 160.49 273.826 160.693C273.416 160.895 272.962 161 272.5 161C272.038 161 271.584 160.895 271.174 160.693ZM273.506 159.739C273.752 159.456 273.874 159.044 273.873 158.501C273.872 157.958 273.751 157.547 273.51 157.267C273.382 157.134 273.227 157.027 273.053 156.954C272.879 156.88 272.692 156.843 272.502 156.843C272.312 156.843 272.124 156.88 271.95 156.954C271.777 157.027 271.621 157.134 271.494 157.267C271.254 157.55 271.135 157.961 271.135 158.501C271.135 159.041 271.256 159.453 271.498 159.739C271.619 159.879 271.772 159.991 271.946 160.064C272.12 160.138 272.31 160.172 272.501 160.163C272.693 160.172 272.885 160.139 273.06 160.064C273.236 159.99 273.391 159.878 273.513 159.736L273.506 159.739Z" fill="white"/>
<path d="M279.085 160.69C278.739 160.489 278.459 160.186 278.281 159.82C278.096 159.405 278 158.953 278 158.496C278 158.039 278.096 157.587 278.281 157.172C278.459 156.806 278.739 156.504 279.085 156.304C279.515 156.075 279.996 155.972 280.478 156.006C280.96 156.041 281.424 156.211 281.819 156.498C281.876 156.542 281.924 156.598 281.96 156.663C281.989 156.729 282.003 156.802 282 156.875C282.002 156.986 281.968 157.094 281.902 157.182C281.875 157.222 281.84 157.254 281.799 157.276C281.757 157.298 281.711 157.31 281.665 157.31C281.609 157.311 281.554 157.303 281.5 157.286C281.444 157.265 281.391 157.236 281.343 157.199C281.189 157.092 281.022 157.005 280.847 156.941C280.689 156.887 280.524 156.86 280.358 156.861C279.93 156.861 279.606 156.998 279.391 157.272C279.175 157.547 279.065 157.955 279.065 158.498C279.065 159.594 279.496 160.142 280.358 160.143C280.518 160.144 280.676 160.117 280.827 160.064C281.005 159.994 281.177 159.907 281.34 159.804C281.393 159.77 281.449 159.741 281.508 159.718C281.557 159.701 281.609 159.692 281.662 159.694C281.708 159.694 281.754 159.706 281.795 159.728C281.836 159.75 281.872 159.782 281.899 159.821C281.965 159.909 281.999 160.018 281.997 160.129C281.999 160.202 281.984 160.275 281.952 160.341C281.918 160.404 281.872 160.459 281.816 160.503C281.421 160.79 280.957 160.96 280.475 160.994C279.993 161.028 279.512 160.925 279.082 160.696L279.085 160.69Z" fill="white"/>
<path d="M287 160.532C287 160.595 286.986 160.658 286.959 160.716C286.932 160.773 286.892 160.824 286.843 160.864C286.745 160.952 286.617 161.001 286.485 161C286.396 161 286.309 160.974 286.234 160.926C286.153 160.875 286.09 160.8 286.053 160.712L285.685 159.887H283.324L282.955 160.712C282.918 160.799 282.857 160.874 282.777 160.926C282.702 160.975 282.613 161.001 282.523 161C282.39 161 282.261 160.952 282.161 160.864C282.111 160.825 282.07 160.774 282.042 160.717C282.014 160.659 282 160.596 282 160.532C282.003 160.454 282.022 160.378 282.057 160.308L283.937 156.343C283.984 156.236 284.064 156.146 284.166 156.088C284.267 156.03 284.381 156 284.497 156C284.613 156 284.727 156.03 284.827 156.088C284.929 156.148 285.011 156.235 285.064 156.34L286.944 160.305C286.979 160.376 286.998 160.453 287 160.532ZM283.69 159.057H285.313L284.505 157.236L283.69 159.057Z" fill="white"/>
<path d="M292 160.551C292.001 160.613 291.988 160.675 291.962 160.731C291.935 160.787 291.897 160.836 291.849 160.873C291.749 160.957 291.624 161.002 291.495 161C291.408 160.999 291.323 160.978 291.246 160.936C291.161 160.893 291.09 160.825 291.04 160.741L290.15 159.366C290.089 159.262 290.007 159.172 289.909 159.104C289.81 159.047 289.698 159.019 289.586 159.024H289.039V160.439C289.043 160.512 289.033 160.585 289.009 160.653C288.986 160.722 288.949 160.785 288.902 160.839C288.853 160.889 288.794 160.927 288.73 160.953C288.666 160.978 288.597 160.989 288.528 160.986C288.458 160.992 288.387 160.982 288.321 160.956C288.254 160.931 288.194 160.891 288.144 160.839C288.094 160.787 288.056 160.724 288.031 160.655C288.007 160.586 287.997 160.512 288.003 160.439V156.514C287.995 156.445 288.003 156.375 288.025 156.31C288.047 156.245 288.083 156.185 288.131 156.136C288.178 156.087 288.235 156.049 288.298 156.026C288.361 156.003 288.428 155.995 288.494 156.003H290.189C290.746 156.003 291.167 156.13 291.452 156.384C291.737 156.639 291.879 157.006 291.879 157.488C291.891 157.831 291.783 158.167 291.576 158.435C291.355 158.699 291.052 158.875 290.72 158.932C290.851 158.958 290.974 159.014 291.081 159.097C291.203 159.196 291.307 159.315 291.391 159.45L291.907 160.25C291.966 160.338 291.999 160.443 292 160.551ZM290.687 158.032C290.759 157.969 290.814 157.889 290.85 157.8C290.886 157.71 290.901 157.613 290.894 157.516C290.894 157.279 290.825 157.106 290.687 156.998C290.55 156.89 290.332 156.836 290.034 156.837H289.03V158.196H290.034C290.335 158.196 290.553 158.141 290.687 158.032Z" fill="white"/>
<path d="M294.641 160.852C294.594 160.8 294.558 160.739 294.534 160.671C294.511 160.603 294.5 160.531 294.503 160.458V156.894H293.472C293.157 156.894 293 156.744 293 156.444C293 156.144 293.157 155.996 293.472 156H296.528C296.843 156 297 156.148 297 156.444C297 156.74 296.843 156.89 296.528 156.894H295.497V160.458C295.5 160.53 295.49 160.602 295.467 160.67C295.444 160.738 295.409 160.8 295.363 160.852C295.263 160.947 295.135 161 295.002 161C294.869 161 294.741 160.947 294.641 160.852Z" fill="white"/>
<path d="M144.667 49.4711L155.255 45.3077C155.255 45.3077 162.574 48.449 164.632 61.4502C166.69 74.4514 165.201 81.1726 169.108 84.6055C173.015 88.0385 169.535 99.6523 167.972 104.62C166.408 109.587 170.809 112.07 170.809 112.07C170.809 112.07 163.631 112.435 161.713 107.833C159.794 103.231 159.225 100.018 155.46 98.7024C151.694 97.3874 149.703 89.0644 151.551 83.2905C153.399 77.5165 152.341 52.6136 144.667 49.4711Z" fill="#263238"/>
<path d="M134.245 48.4947C134.245 48.4947 125.983 47.8417 124.906 58.7129C123.828 69.5842 131.017 85.8182 128.282 90.529C125.547 95.2399 143.872 95.3846 143.872 95.3846L142.501 77.1941L134.245 48.4947Z" fill="#1B2428"/>
<path d="M141.483 84.1804V89.5459L134.333 87.697C134.333 87.697 138.041 98.2599 144.762 99.2665C151.482 100.273 157.385 92.7275 157.385 92.7275L152.139 91.3858L151.974 82.6666L141.483 84.1804Z" fill="#F4AB8C"/>
<path d="M153.41 82.6666L152.443 92.3299C152.443 92.3299 152.201 95.3213 153.249 96.9743L147.846 92.7045L148.653 86.5619L150.103 83.7149L153.41 82.6666Z" fill="#F4AB8C"/>
<path d="M158.103 75.5449C157.679 80.9381 154.257 83.4549 151.272 84.6491C150.07 85.122 148.819 85.4546 147.543 85.6404C143.845 86.1938 141.843 85.6404 138.566 83.8645C137.697 83.3945 136.867 82.0668 136.113 80.3628C135.987 80.0713 135.86 79.7695 135.733 79.4639C134.643 76.7314 133.742 73.3465 133.182 70.989C133.108 70.6705 133.038 70.3709 132.974 70.0901C132.699 68.8843 132.547 68.11 132.547 68.11C132.547 68.11 129.381 51.6904 137.614 49.3624C140.823 48.4545 143.495 48.321 145.705 48.6523C152.962 49.7322 155.25 55.7969 155.25 55.7969C155.25 55.7969 158.736 67.4462 158.103 75.5449Z" fill="#FABB9B"/>
<path d="M134.647 60.2696C134.647 60.2696 142.245 69.4741 158.395 66.4064C158.395 66.4064 166.145 41.863 144.835 42.9587C144.835 42.9587 136.009 42.7393 133.001 49.3136C133.001 49.3136 128.051 47.7791 126.328 55.6686C124.605 63.558 125.898 71.2268 130.203 72.9807C134.508 74.7346 134.647 60.2696 134.647 60.2696Z" fill="#263238"/>
<path d="M137.571 147.051L135.923 153.841L162.949 155L157.346 147.051H137.571Z" fill="#043172"/>
<path opacity="0.64" d="M137.571 147.051L135.923 153.841L162.949 155L157.346 147.051H137.571Z" fill="url(#paint7_linear)"/>
<path d="M134.947 86.8573C134.947 86.8573 138.329 97.7723 145.413 97.7723C152.497 97.7723 158.457 91.2578 158.457 91.2578C158.457 91.2578 170.11 87.8881 173.33 91.7981C176.549 95.7081 202.096 126.611 189.858 136.223C177.62 145.835 169.404 142.738 169.404 142.738C169.404 142.738 157.491 150.231 145.901 150.231C134.31 150.231 132.375 146.159 133.984 144.203L133.353 140.233C133.244 139.543 133.068 138.865 132.828 138.21L128.99 127.749L127.702 127.26C127.702 127.26 118.359 152.186 103.225 145.344C88.0904 138.501 114.658 91.093 114.658 91.093C114.658 91.093 121.259 77.2452 134.947 86.8573Z" fill="url(#paint8_linear)"/>
<path d="M101.744 127.179C101.744 127.179 103.659 121.668 106.637 119.548C109.614 117.429 116.846 114.462 116.846 114.462L101.744 127.179Z" fill="#FF344A"/>
<path d="M179.641 118.436L167.832 113.955L167.905 116.323L162.949 113.263L167.395 100.949C167.395 100.949 176.58 109.25 179.641 118.436Z" fill="#E51F3B"/>
<path d="M151.82 96.2071C151.82 96.2071 152.433 99.3238 154.606 99.9248C156.778 100.526 159.451 102.709 159.787 105.172C160.122 107.636 163.184 110.038 164.911 110.474C166.637 110.911 162.515 100.144 162.515 100.144L156.555 96.0945L153.381 95.3846L151.82 96.2071Z" fill="#E51F3B"/>
<path d="M171.349 112.072C171.349 112.072 164.007 112.399 161.935 107.835C160.147 103.883 159.5 100.489 155.464 98.7038C151.976 97.1591 149.813 90.2272 151.068 84.5774C154.076 83.398 157.527 80.9098 157.953 75.5859C158.189 72.6132 157.853 69.1561 157.336 65.9856C156.784 62.6428 156.032 59.3358 155.082 56.0823C155.082 56.0823 152.776 50.0926 145.462 49.0261L155.247 45.3077C155.247 45.3077 162.821 48.4478 164.951 61.4519C167.08 74.4559 166.256 80.4836 169.584 84.6065C174.954 91.2544 171.865 97.6081 168.408 104.621C166.095 109.311 171.349 112.072 171.349 112.072Z" fill="#263238"/>
<path opacity="0.8" d="M170.897 112.072C170.897 112.072 163.829 112.402 161.834 107.799C160.113 103.813 159.49 100.391 155.604 98.5897C152.246 97.0318 150.164 90.0407 151.372 84.3427C154.268 83.1532 157.591 80.6438 158 75.2744C158.228 72.2764 157.904 68.7898 157.406 65.5923C158.221 64.8185 159.834 63.7364 161.676 64.8863C164.33 66.549 164.968 74.1694 160.666 75.772C160.666 75.772 159.339 82.1261 156.524 84.4463C153.709 86.7664 153.125 94.0044 157.853 96.2695C162.58 98.5347 163.481 101.076 163.64 104.668C163.799 108.259 167.529 111.581 170.897 112.072Z" fill="#1B2428"/>
<path d="M156.59 67.6922C156.59 67.6922 156.848 64.8929 159.676 65.2035C164.11 65.6907 162.176 78.5673 157.175 74.835L156.59 67.6922Z" fill="#FABB9B"/>
<path d="M167.718 115.65L155.945 109.701L152.069 101.318C152.069 101.318 143.959 94.5425 142.38 92.2051C142.38 92.2051 140.371 92.7897 142.38 95.6383C144.39 98.4868 147.044 100.971 147.044 100.971L142.83 105.907C142.128 106.725 141.755 107.783 141.786 108.869C141.828 110.235 142.106 111.866 142.739 112.44C143.887 113.482 146.13 113.993 147.063 113.043C147.063 113.043 148.337 116.676 149.772 117.189C151.208 117.701 154.507 117.261 154.507 117.261L165.775 125.59L167.718 115.65Z" fill="#FABB9B"/>
<path d="M166.923 117.641C166.923 117.641 167.592 116.56 167.481 113.667C167.481 113.667 168.289 116.804 166.923 117.641Z" fill="#E51F3B"/>
<path d="M161.22 130.96L154.169 113.442C154.169 113.442 163.025 109.348 176.468 123.102C189.91 136.856 203.521 159.94 200.737 172.22C197.954 184.5 175.323 187.61 175.323 187.61C175.323 187.61 109.899 191.706 103.669 181.061C97.4396 170.416 101.374 155.52 121.05 153.394C140.726 151.267 155.317 153.229 155.317 153.229L161.22 130.96Z" fill="#19568C"/>
<path d="M131.949 159.85C131.949 159.85 116.654 157.42 110.171 164.538C110.171 164.538 111.839 160.025 115.159 159.157C115.159 159.157 110.337 160.025 106.513 161.587C106.513 161.586 112.825 153.426 131.949 159.85Z" fill="url(#paint9_linear)"/>
<path d="M162.248 171.918L185.995 177.397C185.995 177.397 187.627 170.425 192.341 170.923C197.055 171.421 203.89 179.721 204.541 180.053C205.193 180.384 211.374 180.717 213.164 182.046C214.954 183.374 217.882 183.711 218.37 184.536C218.858 185.361 218.533 187.354 217.393 187.354C216.253 187.354 196.408 188.848 188.435 187.188L158.827 189.18C158.827 189.18 148.258 173.413 162.248 171.918Z" fill="#EFA78B"/>
<path d="M168.906 188.911C168.906 188.911 136.614 197.169 118.815 194.032C115.804 193.501 112.966 192.109 110.472 190.165C98.2275 180.623 94.3689 157.773 119.968 158.185C119.968 158.185 138.423 159.505 164.949 168.591C164.949 168.591 167.921 173.308 168.956 179.936C169.441 182.909 169.424 185.943 168.906 188.911Z" fill="#2779B5"/>
<path opacity="0.64" d="M168.907 189.11C168.907 189.11 136.622 197.087 118.828 194.057C115.818 193.543 112.981 192.199 110.487 190.321C138.183 193.905 163.934 182.774 168.955 180.436C169.441 183.309 169.425 186.242 168.907 189.11Z" fill="url(#paint10_linear)"/>
<path d="M167.718 170.866C168.16 171.403 181.016 188.15 181.016 188.15C181.016 188.15 184.215 211.629 184.77 212.672C185.325 213.714 187.408 214.417 189.037 213.107C190.665 211.796 190.537 211.453 192.443 210.661C194.349 209.87 196.347 206.628 196.773 205.685C197.198 204.742 197.763 204.144 198.656 201.935C199.549 199.727 190.514 184.52 190.514 184.52L183.23 163.744L167.718 170.866Z" fill="#FABB9B"/>
<path d="M186.794 163.568C186.757 166.945 186.381 168.946 186.381 168.946C180.303 174.543 169.313 174.872 169.313 174.872C159.631 173.72 144.861 151.505 143.228 134.715C142.679 129.103 143.688 124.872 145.276 121.723C148.442 115.454 153.887 113.485 153.887 113.485C172.104 108.877 179.324 131.265 184.083 146.072C185.914 151.721 186.829 157.628 186.794 163.568Z" fill="#2779B5"/>
<path opacity="0.55" d="M186.795 163.714C186.758 167.047 186.382 169.023 186.382 169.023C180.304 174.547 169.313 174.872 169.313 174.872C159.631 173.735 144.861 151.807 143.228 135.234C142.679 129.695 143.688 125.518 145.276 122.41C145.188 128.739 146.923 138.533 155.699 149.205C165.203 160.771 178.359 163.372 186.795 163.714Z" fill="url(#paint11_linear)"/>
<path style="mix-blend-mode:screen" d="M122.537 85.4221L120.026 45.1845C120.026 45.1845 140.354 30.0364 160.763 39.901C178.939 48.6824 177.5 78.4999 177.5 78.4999L140.354 104.923L122.537 85.4221Z" fill="url(#paint12_linear)"/>
<path d="M140.394 104.923L140.692 104.082L135.502 82.6666L135.128 83.5093L140.394 104.923Z" fill="#2779B5"/>
<path opacity="0.99" d="M124.404 98.0157L121.615 86.2604L135.411 83.4615L140.692 105.404L131.655 107.308L124.404 98.0157Z" fill="#2A2B2A"/>
<path d="M121.615 86.641L122.516 85.6667L135.923 82.6666L135.547 83.6L121.615 86.641Z" fill="#2779B5"/>
<path d="M140.821 98.1973C138.652 99.5556 137.533 100.307 137.465 100.353L139.702 99.4919C139.702 99.4919 141.268 100.464 137.35 102.731L134.888 104.674C134.888 104.674 136.679 115.147 132.313 116.227L126.044 124L126.018 123.974L118.436 116.337L118.954 115.856L125.044 110.183C125.044 110.183 122.132 100.142 122.132 99.1695C122.132 98.5109 122.442 95.3681 122.642 93.4211C122.648 93.3589 122.677 93.301 122.724 93.2576C122.771 93.2141 122.832 93.188 122.897 93.1838C122.961 93.1796 123.025 93.1976 123.078 93.2347C123.13 93.2717 123.167 93.3253 123.182 93.3861L124.484 98.7446C124.484 98.7446 127.17 94.9657 127.842 94.7457C128.515 94.5258 140.492 92.8025 141.389 93.0187C142.285 93.2349 143.06 96.7902 140.821 98.1973Z" fill="#FABB9B"/>
<path d="M126.385 123.965L125.171 124.795C122.181 122.064 119.825 118.802 118.436 116.66L119.214 116.051L118.688 116.52L126.381 123.964L126.385 123.965Z" fill="#FABB9B"/>
<path opacity="0.7" d="M116.846 114.462C117.697 115.052 118.492 115.636 119.231 116.214L118.376 116.846C117.411 115.444 116.871 114.501 116.846 114.462Z" fill="#E51F3B"/>
<path opacity="0.7" d="M127.974 127.179C126.85 126.472 125.788 125.697 124.795 124.861L126.175 124C127.524 125.949 127.974 127.179 127.974 127.179Z" fill="#E51F3B"/>
<path d="M162.23 78.6923C162.199 79.369 162.139 80.0458 162.06 80.72C161.98 81.3942 161.875 82.0646 161.735 82.7299C161.601 83.3975 161.408 84.0517 161.159 84.6849C161.033 85.0028 160.88 85.3029 160.754 85.6158C160.628 85.9286 160.502 86.244 160.408 86.5658C160.202 87.2067 160.056 87.866 159.973 88.5348C159.892 89.2027 159.897 89.8783 159.989 90.5447C160.036 90.8765 160.111 91.2037 160.212 91.5229C160.311 91.8425 160.437 92.1524 160.591 92.4486C160.745 92.7453 160.923 93.0281 161.124 93.294C161.327 93.5583 161.551 93.8056 161.793 94.0333C162.279 94.4919 162.823 94.8827 163.412 95.1953C163.561 95.2732 163.707 95.346 163.858 95.4277L164.081 95.5554C164.158 95.5916 164.231 95.6343 164.301 95.6831L164.51 95.8312C164.544 95.8568 164.581 95.8797 164.614 95.9078L164.71 95.9934L164.9 96.1671C164.964 96.2245 165.017 96.2947 165.075 96.3573C165.133 96.4199 165.192 96.485 165.24 96.5552L165.388 96.7672L165.46 96.8745L165.522 96.9881L165.648 97.2154C165.686 97.292 165.715 97.3725 165.75 97.4517C165.785 97.5308 165.822 97.6087 165.845 97.6917C165.894 97.8564 165.957 98.0173 165.99 98.1859C166.143 98.8523 166.216 99.5347 166.208 100.219C166.208 101.583 166.032 102.931 165.972 104.283C165.955 104.622 165.951 104.96 165.958 105.305C165.958 105.473 165.976 105.642 165.985 105.816C165.994 105.989 166.017 106.153 166.051 106.319L166.097 106.566C166.118 106.649 166.142 106.73 166.164 106.812L166.198 106.933L166.243 107.052C166.274 107.129 166.302 107.21 166.337 107.287C166.482 107.592 166.68 107.869 166.923 108.103C166.675 107.872 166.47 107.599 166.318 107.296C166.282 107.219 166.253 107.138 166.22 107.061L166.172 106.942L166.135 106.814C166.113 106.732 166.086 106.651 166.065 106.569L166.011 106.314C165.974 106.148 165.961 105.978 165.936 105.809C165.91 105.641 165.904 105.471 165.899 105.298C165.884 104.959 165.881 104.618 165.893 104.277C165.936 102.919 166.102 101.568 166.083 100.216C166.083 99.5429 166.006 98.872 165.854 98.2165C165.821 98.0518 165.759 97.896 165.711 97.7364C165.688 97.656 165.648 97.5819 165.618 97.504C165.587 97.4261 165.556 97.3495 165.518 97.2754L165.399 97.0571L165.339 96.9485L165.269 96.8464L165.126 96.6421C165.08 96.5744 165.019 96.5144 164.966 96.4531C164.913 96.3918 164.86 96.3254 164.799 96.2705L164.615 96.1058L164.523 96.0228C164.491 95.9959 164.456 95.9742 164.423 95.95L164.22 95.807C163.943 95.6307 163.645 95.4839 163.336 95.3268C162.734 95.0105 162.177 94.6136 161.68 94.147C161.432 93.91 161.203 93.6538 160.995 93.3808C160.79 93.1062 160.609 92.8144 160.452 92.5086C160.295 92.2042 160.165 91.8858 160.065 91.5573C159.963 91.2301 159.888 90.8948 159.841 90.5549C159.648 89.1925 159.859 87.8032 160.287 86.5147C160.392 86.1904 160.517 85.8763 160.647 85.5596C160.777 85.2429 160.933 84.9416 161.063 84.6338C161.316 84.008 161.514 83.3611 161.656 82.7005C161.807 82.0417 161.923 81.3738 162.018 80.7034C162.113 80.033 162.186 79.369 162.23 78.6923Z" fill="#1B2428"/>
<path d="M163.722 67.5641C163.759 66.6842 163.735 65.8028 163.65 64.9263C163.57 64.0491 163.433 63.178 163.24 62.3185C163.05 61.4596 162.781 60.6202 162.435 59.8107C162.261 59.4077 162.06 59.0166 161.833 58.64C161.609 58.2629 161.352 57.9059 161.065 57.5731C160.497 56.9019 159.777 56.3735 158.966 56.031C158.146 55.7073 157.265 55.5673 156.385 55.6207C155.491 55.6638 154.596 55.539 153.747 55.253C152.907 54.9495 152.138 54.4789 151.486 53.8697C150.843 53.2595 150.26 52.5894 149.745 51.8685C149.22 51.1581 148.723 50.4301 148.184 49.7335C147.659 49.0301 147.055 48.3885 146.384 47.8211C145.708 47.2628 144.929 46.8413 144.091 46.5804C143.254 46.3158 142.374 46.2122 141.499 46.2752C140.623 46.3434 139.766 46.5582 138.962 46.9105C138.156 47.2607 137.396 47.7094 136.701 48.2463C136.002 48.7771 135.364 49.3828 134.798 50.0524L134.696 49.9499C135.253 49.5639 135.848 49.2354 136.471 48.9693C137.092 48.6983 137.744 48.503 138.412 48.3877C139.084 48.2701 139.771 48.2739 140.441 48.3989C141.112 48.5288 141.746 48.8071 142.295 49.2132C142.832 49.6347 143.263 50.1763 143.551 50.7941C143.838 51.4035 144.067 52.0378 144.237 52.689C144.42 53.3344 144.58 53.9848 144.778 54.6214C144.961 55.2615 145.229 55.8747 145.574 56.445C145.922 57.01 146.421 57.4683 147.014 57.7695C147.607 58.0747 148.281 58.1747 148.941 58.2698C150.27 58.4499 151.617 58.4462 152.961 58.5199C153.635 58.5499 154.307 58.6247 154.971 58.7438C155.635 58.8636 156.279 59.0793 156.88 59.3842C157.478 59.6964 158.016 60.1124 158.467 60.6124C158.914 61.1132 159.294 61.6699 159.598 62.2684C159.29 61.6728 158.906 61.1198 158.454 60.6237C158.001 60.129 157.463 59.719 156.865 59.413C156.265 59.1129 155.624 58.9022 154.962 58.7876C154.299 58.6748 153.629 58.6071 152.956 58.585C151.616 58.5237 150.267 58.535 148.929 58.3548C148.595 58.3111 148.262 58.2573 147.931 58.1847C147.599 58.1131 147.277 58.0009 146.972 57.8508C146.361 57.5422 145.848 57.0722 145.488 56.4925C145.137 55.9159 144.864 55.2955 144.677 54.6476C144.474 54.0073 144.312 53.3569 144.129 52.714C143.958 52.0692 143.729 51.4413 143.444 50.8379C143.162 50.2375 142.743 49.7114 142.22 49.302C141.684 48.9095 141.067 48.6411 140.413 48.5165C139.758 48.3977 139.087 48.3977 138.432 48.5165C137.775 48.6316 137.134 48.8261 136.524 49.0956C135.912 49.3582 135.328 49.6826 134.782 50.0637L134.333 50.3801L134.68 49.9611C135.252 49.2795 135.898 48.6629 136.606 48.1225C137.308 47.5751 138.077 47.1175 138.894 46.7605C139.715 46.4028 140.59 46.1859 141.483 46.1188C142.378 46.0583 143.276 46.1669 144.13 46.439C144.985 46.7079 145.779 47.1404 146.467 47.7123C147.144 48.2883 147.753 48.9391 148.283 49.6522C148.822 50.3538 149.318 51.0843 149.84 51.7935C150.347 52.5108 150.923 53.178 151.559 53.7859C152.199 54.3883 152.955 54.8536 153.783 55.1529C154.616 55.4386 155.495 55.5659 156.375 55.5282C157.269 55.4766 158.163 55.6214 158.995 55.9522C159.818 56.3032 160.547 56.8417 161.123 57.5244C161.694 58.2048 162.155 58.9693 162.49 59.7907C162.831 60.6063 163.095 61.4517 163.278 62.316C163.464 63.1781 163.594 64.0513 163.666 64.93C163.745 65.8057 163.764 66.6858 163.722 67.5641Z" fill="#1B2428"/>
<path d="M154.704 67.5438L155.265 67.5638C155.334 67.5664 155.402 67.5519 155.467 67.5213C155.531 67.4907 155.589 67.4447 155.639 67.3859C155.688 67.3271 155.727 67.2567 155.754 67.1789C155.781 67.1011 155.795 67.0175 155.795 66.9331V61.041C155.795 60.8737 155.741 60.7133 155.644 60.595C155.548 60.4767 155.417 60.4103 155.28 60.4103C155.154 60.4102 155.032 60.4671 154.938 60.5701C154.844 60.6731 154.783 60.8149 154.769 60.9687L154.208 66.8421C154.2 66.9288 154.207 67.0166 154.228 67.0999C154.249 67.1833 154.284 67.2604 154.331 67.3263C154.377 67.3923 154.435 67.4457 154.499 67.4831C154.563 67.5205 154.633 67.5412 154.704 67.5438Z" fill="url(#paint13_linear)"/>
<path d="M152.196 67.5223L152.648 67.5629C152.884 67.5852 153.092 67.3084 153.11 66.9533L153.409 61.0607C153.426 60.7126 153.254 60.4218 153.024 60.4107C152.812 60.3995 152.622 60.6316 152.581 60.9475L151.828 66.7968C151.781 67.1644 151.959 67.4999 152.196 67.5223Z" fill="url(#paint14_linear)"/>
<path d="M143.625 77.1019H143.689L144.52 77.0091C144.567 76.9983 144.608 76.9683 144.635 76.9254C144.662 76.8825 144.672 76.83 144.664 76.779C144.656 76.6621 144.573 76.5681 144.49 76.5846L143.658 76.6774C143.416 76.7053 143.178 76.5731 142.982 76.3075C142.766 75.9902 142.64 75.6118 142.619 75.2183L142.61 75.0912C142.586 74.7595 142.719 74.4723 142.905 74.4558C143.183 74.4253 143.429 74.2219 143.599 73.8864C143.768 73.5297 143.839 73.1286 143.804 72.7298L143.667 70.9391C143.657 70.8209 143.566 70.7332 143.49 70.7447C143.443 70.7565 143.403 70.787 143.376 70.8299C143.349 70.8728 143.339 70.925 143.346 70.976L143.484 72.7667C143.512 73.0692 143.459 73.3739 143.331 73.6449C143.289 73.7438 143.226 73.8301 143.146 73.8966C143.067 73.963 142.973 74.0075 142.874 74.0262C142.51 74.0669 142.249 74.5613 142.285 75.1268L142.295 75.2539C142.321 75.7421 142.479 76.2114 142.749 76.6036C143.001 76.9392 143.309 77.1158 143.625 77.1019Z" fill="#FF806D"/>
<path d="M156.761 74.6156C158.044 72.3885 157.439 69.6353 155.41 68.466C153.381 67.2967 150.695 68.1542 149.412 70.3813C148.129 72.6083 148.734 75.3616 150.763 76.5309C152.792 77.7001 155.478 76.8426 156.761 74.6156Z" fill="#FCA286"/>
<path d="M147.847 68.7199C147.826 69.3783 148.164 69.9278 148.603 69.9481C149.042 69.9685 149.414 69.4501 149.435 68.7917C149.456 68.1332 149.117 67.5838 148.678 67.5646C148.24 67.5454 147.867 68.0614 147.847 68.7199Z" fill="#352D29"/>
<path d="M149.436 68.5829C149.75 68.3877 150.026 68.0339 150.231 67.5641C150.231 67.5641 150.011 68.6071 149.799 69.0362C149.587 69.4652 149.436 68.5829 149.436 68.5829Z" fill="#352D29"/>
<path d="M136.878 79.8621C136.546 80.0484 136.188 80.1898 135.816 80.2821C135.683 79.9905 135.551 79.6887 135.418 79.3829C134.275 76.6495 133.33 73.2634 132.744 70.9051C134.795 70.3386 137.152 71.2904 138.364 73.3328C139.772 75.6938 139.108 78.6199 136.878 79.8621Z" fill="#FCA286"/>
<path d="M138.991 70.3337C139.269 71.181 139.01 72.0513 138.412 72.2788C137.815 72.5063 137.106 72.0002 136.829 71.153C136.552 70.3057 136.81 69.4337 137.407 69.2078C138.005 68.982 138.713 69.4848 138.991 70.3337Z" fill="#352D29"/>
<path d="M137.513 70.3121C136.941 70.2942 136.39 70.1681 135.923 69.9487C135.923 69.9487 136.586 70.5144 137.057 70.7053C137.528 70.8962 137.513 70.3121 137.513 70.3121Z" fill="#352D29"/>
<path d="M151.392 65.9607C150.984 66.0174 150.483 65.8856 149.993 65.7813C149.503 65.677 149.006 65.562 148.573 65.4823C148.141 65.4026 147.64 65.329 147.142 65.2539C146.644 65.1787 146.136 65.1189 145.767 64.9196C145.399 64.7203 145.308 64.36 145.807 64.0181C146.277 63.6838 147.42 63.437 148.855 63.7007C150.29 63.9644 151.287 64.613 151.632 65.0975C151.997 65.5973 151.785 65.9101 151.392 65.9607Z" fill="#11191C"/>
<path d="M134.79 67.5634C135.163 67.5512 135.596 67.3295 136.02 67.1353C136.444 66.9412 136.872 66.7363 137.249 66.5788C137.625 66.4214 138.064 66.2517 138.501 66.0942C138.939 65.9367 139.386 65.7884 139.684 65.5101C139.982 65.2319 140.007 64.8497 139.504 64.5836C139.026 64.3176 137.957 64.2595 136.707 64.7809C135.457 65.3022 134.662 66.1477 134.433 66.7088C134.188 67.2913 134.427 67.5803 134.79 67.5634Z" fill="#11191C"/>
<path d="M147.846 77.8975C147.846 77.8975 144.411 78.8183 142.282 78.6022C142.282 78.6022 144.301 83.7463 146.109 82.4603C147.916 81.1743 147.846 77.8975 147.846 77.8975Z" fill="#FF806D"/>
<g style="mix-blend-mode:multiply" opacity="0.55">
<g style="mix-blend-mode:multiply" opacity="0.55">
<g style="mix-blend-mode:multiply" opacity="0.55">
<path d="M195 26.889H168.695C168.024 26.8914 167.38 27.1592 166.906 27.634C166.431 28.1089 166.163 28.7523 166.161 29.4238V40.5111L159.81 46.3994L166.161 45.2359V49.7073C166.163 50.3788 166.431 51.0219 166.906 51.4967C167.381 51.9715 168.024 52.2394 168.695 52.2421H195C195.672 52.2398 196.315 51.972 196.79 51.4971C197.265 51.0222 197.533 50.3789 197.535 49.7073V29.4289C197.533 28.7573 197.265 28.1137 196.79 27.6387C196.316 27.1638 195.672 26.8961 195 26.8941" fill="#F7576E"/>
</g>
</g>
</g>
<path d="M194.514 25H168.715C168.057 25.0029 167.426 25.2988 166.96 25.8232C166.494 26.3476 166.232 27.0579 166.229 27.7994V40.0442L160 46.5473L166.229 45.2609V50.2006C166.232 50.9421 166.494 51.6524 166.96 52.1768C167.426 52.7012 168.057 52.997 168.715 53H194.514C195.172 52.997 195.803 52.7012 196.269 52.1768C196.735 51.6524 196.997 50.9421 197 50.2006V27.805C196.997 27.0635 196.735 26.3532 196.269 25.8288C195.803 25.3044 195.172 25.0086 194.514 25.0056" fill="#FF5A61"/>
<path d="M185.977 33.3888C182.465 33.4669 181.681 37.5452 181.625 37.869C181.571 37.549 180.783 33.5386 177.274 33.3888C174.177 33.2608 173.131 36.1217 173.299 37.887C173.795 43.0546 179.399 46.0039 181.11 46.7886C181.266 46.8604 181.435 46.8975 181.605 46.8975C181.776 46.8975 181.945 46.8604 182.101 46.7886C183.817 46.0065 189.463 43.0572 189.957 37.887C190.12 36.1269 189.154 33.3171 185.977 33.3888Z" fill="#FBFBFB"/>
<path d="M329.327 69.1156L337.379 63.1952C337.02 60.2398 337.326 57.2428 338.275 54.4175C339.224 51.5922 340.792 49.0081 342.868 46.8493C350.472 38.9219 363.238 38.3911 371.488 45.6645C373.547 47.479 375.216 49.6842 376.393 52.1488C377.571 54.6134 378.234 57.2868 378.343 60.0097C378.452 62.7325 378.004 65.4492 377.026 67.9976C376.049 70.546 374.561 72.874 372.653 74.8429C364.927 82.8164 351.991 83.1902 343.801 75.6813C341.845 73.8917 340.263 71.7427 339.142 69.3548L329.753 70.2119C329.618 70.2246 329.483 70.1934 329.369 70.1232C329.254 70.053 329.166 69.9477 329.118 69.8233C329.069 69.699 329.064 69.5624 329.102 69.4346C329.139 69.3068 329.219 69.1947 329.327 69.1156Z" fill="#FF5A61"/>
<path d="M371.203 60.9891C371.161 58.4743 370.373 56.0286 368.941 53.9613C367.508 51.894 365.495 50.2979 363.155 49.3748C360.815 48.4516 358.255 48.243 355.796 48.7751C353.338 49.3073 351.093 50.5564 349.345 52.3645C347.596 54.1726 346.423 56.4585 345.974 58.9332C345.525 61.4079 345.819 63.9603 346.82 66.2676C347.821 68.5749 349.484 70.5336 351.599 71.8959C353.713 73.2583 356.184 73.9631 358.698 73.9213C360.369 73.8938 362.017 73.5373 363.55 72.8724C365.082 72.2075 366.469 71.2471 367.63 70.0462C368.792 68.8452 369.705 67.4272 370.318 65.8731C370.931 64.3191 371.232 62.6595 371.203 60.9891ZM369.227 60.0915L368.399 60.1054C368.144 60.1096 367.902 60.2148 367.725 60.3977C367.548 60.5807 367.451 60.8265 367.455 61.081C367.459 61.3356 367.564 61.578 367.747 61.7551C367.93 61.9321 368.176 62.0292 368.43 62.025L369.253 62.011C369.06 64.5293 367.992 66.9006 366.233 68.7135C364.474 70.5263 362.136 71.6664 359.625 71.9359L359.613 71.1409C359.608 70.8864 359.503 70.6439 359.32 70.4669C359.137 70.2899 358.891 70.1928 358.637 70.197C358.382 70.2012 358.14 70.3063 357.963 70.4893C357.786 70.6723 357.689 70.9181 357.693 71.1726L357.706 71.9676C355.187 71.7814 352.813 70.7194 350.995 68.9658C349.177 67.2123 348.031 64.8778 347.754 62.3673L348.576 62.3533C348.702 62.3513 348.826 62.3244 348.942 62.2742C349.058 62.2241 349.162 62.1516 349.25 62.061C349.337 61.9704 349.406 61.8635 349.453 61.7462C349.499 61.629 349.522 61.5038 349.52 61.3777C349.518 61.2517 349.491 61.1273 349.441 61.0116C349.39 60.896 349.318 60.7914 349.227 60.7037C349.137 60.616 349.03 60.5471 348.913 60.5008C348.795 60.4545 348.67 60.4317 348.544 60.4338L347.717 60.4477C347.897 57.9176 348.961 55.5312 350.722 53.706C352.484 51.8807 354.831 50.7329 357.353 50.4633L357.367 51.3178C357.371 51.5724 357.476 51.8148 357.659 51.9919C357.842 52.1689 358.088 52.266 358.343 52.2618C358.597 52.2576 358.84 52.1524 359.017 51.9695C359.194 51.7865 359.291 51.5407 359.287 51.2861L359.273 50.4316C361.801 50.6194 364.183 51.6897 366.003 53.4553C367.822 55.221 368.963 57.5699 369.227 60.0915Z" fill="white"/>
<path d="M366.781 56.9744L359.065 60.1876C359.062 60.1975 359.059 60.2073 359.056 60.2169C359.031 60.2804 359.001 60.3414 358.963 60.399L360.782 65.8891C360.833 66.0632 360.811 66.2493 360.719 66.4079C360.626 66.5665 360.472 66.685 360.289 66.7383C360.105 66.7916 359.907 66.7755 359.736 66.6934C359.565 66.6113 359.434 66.4697 359.373 66.2986L357.554 60.8109C357.291 60.7011 357.085 60.4994 356.977 60.2486C356.87 59.9978 356.871 59.7176 356.979 59.4673C357.088 59.2171 357.296 59.0164 357.559 58.9079C357.822 58.7993 358.12 58.7915 358.389 58.8859C358.416 58.8948 358.443 58.905 358.468 58.9165L366.185 55.7045C366.273 55.666 366.37 55.6446 366.467 55.6414C366.565 55.6382 366.663 55.6534 366.754 55.6859C366.846 55.7185 366.929 55.7679 367 55.8312C367.071 55.8945 367.128 55.9705 367.168 56.0547C367.207 56.1389 367.229 56.2296 367.231 56.3217C367.233 56.4137 367.215 56.5052 367.179 56.5907C367.143 56.6763 367.089 56.7543 367.021 56.8202C366.953 56.886 366.871 56.9385 366.781 56.9744Z" fill="#F5F5F5"/>
<path fill-rule="evenodd" clip-rule="evenodd" d="M151.887 31.7307C151.887 31.5369 151.964 31.3511 152.101 31.214C152.238 31.077 152.424 31 152.617 31C152.811 31 152.997 31.077 153.134 31.214C153.271 31.3511 153.347 31.5369 153.347 31.7307V33.4481H155.065C155.258 33.4481 155.444 33.5251 155.581 33.6622C155.718 33.7992 155.795 33.9851 155.795 34.1788C155.795 34.3726 155.718 34.5585 155.581 34.6955C155.444 34.8326 155.258 34.9096 155.065 34.9096H153.344V36.6283C153.344 36.8221 153.267 37.0079 153.13 37.145C152.993 37.282 152.807 37.359 152.613 37.359C152.42 37.359 152.234 37.282 152.097 37.145C151.96 37.0079 151.883 36.8221 151.883 36.6283V34.907H150.166C149.972 34.907 149.787 34.83 149.65 34.693C149.513 34.5559 149.436 34.3701 149.436 34.1763C149.436 33.9825 149.513 33.7966 149.65 33.6596C149.787 33.5225 149.972 33.4456 150.166 33.4456H151.883L151.887 31.7307Z" fill="white"/>
<path fill-rule="evenodd" clip-rule="evenodd" d="M453.757 168.54C453.757 168.322 453.853 168.113 454.024 167.959C454.196 167.805 454.428 167.718 454.671 167.718C454.913 167.718 455.146 167.805 455.317 167.959C455.488 168.113 455.585 168.322 455.585 168.54V170.473H457.727C457.97 170.473 458.202 170.559 458.373 170.713C458.545 170.868 458.641 171.077 458.641 171.295C458.641 171.513 458.545 171.722 458.373 171.876C458.202 172.03 457.97 172.117 457.727 172.117H455.581V174.049C455.581 174.268 455.484 174.477 455.313 174.631C455.142 174.785 454.909 174.872 454.667 174.872C454.424 174.872 454.192 174.785 454.02 174.631C453.849 174.477 453.753 174.268 453.753 174.049V172.117H451.606C451.364 172.117 451.131 172.03 450.96 171.876C450.789 171.722 450.692 171.513 450.692 171.295C450.692 171.077 450.789 170.868 450.96 170.713C451.131 170.559 451.364 170.473 451.606 170.473H453.753L453.757 168.54Z" fill="white"/>
<path fill-rule="evenodd" clip-rule="evenodd" d="M437.062 201.221C437.062 200.979 437.158 200.747 437.33 200.575C437.501 200.404 437.733 200.308 437.976 200.308C438.218 200.308 438.45 200.404 438.622 200.575C438.793 200.747 438.889 200.979 438.889 201.221V203.368H441.035C441.277 203.368 441.51 203.465 441.681 203.636C441.852 203.807 441.949 204.04 441.949 204.282C441.949 204.524 441.852 204.757 441.681 204.928C441.51 205.099 441.277 205.196 441.035 205.196H438.889V207.343C438.889 207.585 438.793 207.818 438.622 207.989C438.45 208.16 438.218 208.256 437.976 208.256C437.733 208.256 437.501 208.16 437.33 207.989C437.158 207.818 437.062 207.585 437.062 207.343V205.196H434.914C434.671 205.196 434.439 205.099 434.268 204.928C434.096 204.757 434 204.524 434 204.282C434 204.04 434.096 203.807 434.268 203.636C434.439 203.465 434.671 203.368 434.914 203.368H437.062V201.221Z" fill="white"/>
<path fill-rule="evenodd" clip-rule="evenodd" d="M65.8551 106.632C65.8551 106.389 65.9513 106.157 66.1226 105.986C66.2939 105.814 66.5263 105.718 66.7686 105.718C67.0108 105.718 67.2432 105.814 67.4145 105.986C67.5858 106.157 67.6821 106.389 67.6821 106.632V108.779H69.8301C70.0724 108.779 70.3047 108.875 70.476 109.046C70.6473 109.218 70.7436 109.45 70.7436 109.692C70.7436 109.935 70.6473 110.167 70.476 110.338C70.3047 110.51 70.0724 110.606 69.8301 110.606H67.6742V112.753C67.6742 112.995 67.578 113.228 67.4067 113.399C67.2354 113.57 67.003 113.667 66.7607 113.667C66.5185 113.667 66.2861 113.57 66.1148 113.399C65.9435 113.228 65.8472 112.995 65.8472 112.753V110.606H63.7084C63.4661 110.606 63.2337 110.51 63.0624 110.338C62.8911 110.167 62.7949 109.935 62.7949 109.692C62.7949 109.45 62.8911 109.218 63.0624 109.046C63.2337 108.875 63.4661 108.779 63.7084 108.779H65.8551V106.632Z" fill="white"/>
<path fill-rule="evenodd" clip-rule="evenodd" d="M13.298 167.624C13.3049 167.435 13.3752 167.257 13.4943 167.127C13.6134 166.996 13.772 166.923 13.937 166.923C14.102 166.923 14.2606 166.996 14.3797 167.127C14.4988 167.257 14.5691 167.435 14.576 167.624V169.342H16.0795C16.2443 169.35 16.4002 169.43 16.5144 169.566C16.6286 169.702 16.6923 169.883 16.6923 170.072C16.6923 170.261 16.6286 170.442 16.5144 170.578C16.4002 170.714 16.2443 170.794 16.0795 170.802H14.576V172.521C14.5796 172.619 14.5657 172.717 14.5353 172.81C14.5048 172.902 14.4583 172.986 14.3986 173.057C14.3389 173.128 14.2672 173.185 14.1879 173.223C14.1086 173.262 14.0232 173.282 13.937 173.282C13.8508 173.282 13.7654 173.262 13.6861 173.223C13.6068 173.185 13.5351 173.128 13.4754 173.057C13.4157 172.986 13.3692 172.902 13.3387 172.81C13.3082 172.717 13.2944 172.619 13.298 172.521V170.802H11.7945C11.7084 170.806 11.6223 170.791 11.5417 170.756C11.461 170.721 11.3873 170.668 11.3251 170.6C11.2629 170.531 11.2133 170.449 11.1795 170.359C11.1457 170.268 11.1282 170.171 11.1282 170.072C11.1282 169.973 11.1457 169.876 11.1795 169.785C11.2133 169.695 11.2629 169.613 11.3251 169.545C11.3873 169.476 11.461 169.423 11.5417 169.388C11.6223 169.353 11.7084 169.338 11.7945 169.342H13.298V167.624Z" fill="white"/>
<path d="M38.1542 130.116C38.2017 136.538 49.4727 155.795 49.4727 155.795C49.4727 155.795 60.4576 136.43 60.4101 130.01C60.3626 123.591 55.3413 118.407 49.1953 118.436C43.0493 118.465 38.1067 123.695 38.1542 130.116ZM44.2777 129.996C44.2565 127.112 46.476 124.764 49.2366 124.751C51.9971 124.739 54.2516 127.065 54.2729 129.949C54.2941 132.834 52.0734 135.182 49.314 135.194C46.5547 135.207 44.3052 132.876 44.284 129.996H44.2777Z" fill="#FF5A61"/>
<defs>
<linearGradient id="paint0_linear" x1="230.512" y1="282.37" x2="230.512" y2="245.872" gradientUnits="userSpaceOnUse">
<stop stop-color="white" stop-opacity="0.6"/>
<stop offset="1" stop-color="#99ACB1"/>
</linearGradient>
<linearGradient id="paint1_linear" x1="224.866" y1="10.8921" x2="238.908" y2="248.565" gradientUnits="userSpaceOnUse">
<stop stop-color="#188AAD" stop-opacity="0.5"/>
<stop offset="1" stop-color="#188AAD"/>
</linearGradient>
<linearGradient id="paint2_linear" x1="434.799" y1="242.88" x2="382.754" y2="186.613" gradientUnits="userSpaceOnUse">
<stop stop-color="#FC7171"/>
<stop offset="1" stop-color="#FF4B58"/>
</linearGradient>
<linearGradient id="paint3_linear" x1="29.4103" y1="228.129" x2="87.4359" y2="228.129" gradientUnits="userSpaceOnUse">
<stop stop-color="#0FAADA"/>
<stop offset="1" stop-color="#98CBDB"/>
</linearGradient>
<linearGradient id="paint4_linear" x1="37380.8" y1="101650" x2="47856.8" y2="101650" gradientUnits="userSpaceOnUse">
<stop stop-color="#F45B5B"/>
<stop offset="1" stop-color="#F42432"/>
</linearGradient>
<linearGradient id="paint5_linear" x1="184.596" y1="174.51" x2="267.396" y2="53.3056" gradientUnits="userSpaceOnUse">
<stop offset="0.28" stop-color="#172652" stop-opacity="0.6"/>
<stop offset="0.45" stop-color="#162754" stop-opacity="0.61"/>
<stop offset="0.59" stop-color="#142C5B" stop-opacity="0.65"/>
<stop offset="0.71" stop-color="#113366" stop-opacity="0.71"/>
<stop offset="0.82" stop-color="#0C3D77" stop-opacity="0.79"/>
<stop offset="0.92" stop-color="#064A8B" stop-opacity="0.9"/>
<stop offset="1" stop-color="#00579F"/>
</linearGradient>
<linearGradient id="paint6_linear" x1="245.253" y1="162.925" x2="236.636" y2="154.903" gradientUnits="userSpaceOnUse">
<stop stop-color="#F87A5B"/>
<stop offset="1" stop-color="#FF344A"/>
</linearGradient>
<linearGradient id="paint7_linear" x1="135.923" y1="151.025" x2="162.949" y2="151.025" gradientUnits="userSpaceOnUse">
<stop stop-color="#172652" stop-opacity="0.5"/>
<stop offset="1" stop-color="#17263F"/>
</linearGradient>
<linearGradient id="paint8_linear" x1="131550" y1="92434.7" x2="170930" y2="92434.7" gradientUnits="userSpaceOnUse">
<stop stop-color="#F87A5B"/>
<stop offset="1" stop-color="#FF344A"/>
</linearGradient>
<linearGradient id="paint9_linear" x1="33981.8" y1="12537.5" x2="39025.5" y2="12537.5" gradientUnits="userSpaceOnUse">
<stop stop-color="#172652" stop-opacity="0.5"/>
<stop offset="1" stop-color="#17263F"/>
</linearGradient>
<linearGradient id="paint10_linear" x1="80329.3" y1="27927.3" x2="107550" y2="27927.3" gradientUnits="userSpaceOnUse">
<stop stop-color="#172652" stop-opacity="0.5"/>
<stop offset="1" stop-color="#17263F"/>
</linearGradient>
<linearGradient id="paint11_linear" x1="70949.1" y1="85752.2" x2="86044.5" y2="85752.2" gradientUnits="userSpaceOnUse">
<stop stop-color="#172652" stop-opacity="0.5"/>
<stop offset="1" stop-color="#17263F"/>
</linearGradient>
<linearGradient id="paint12_linear" x1="103828" y1="65977.7" x2="93917.6" y2="76995.6" gradientUnits="userSpaceOnUse">
<stop offset="0.28" stop-color="#172652" stop-opacity="0.6"/>
<stop offset="0.45" stop-color="#162754" stop-opacity="0.61"/>
<stop offset="0.59" stop-color="#142C5B" stop-opacity="0.65"/>
<stop offset="0.71" stop-color="#113366" stop-opacity="0.71"/>
<stop offset="0.82" stop-color="#0C3D77" stop-opacity="0.79"/>
<stop offset="0.92" stop-color="#064A8B" stop-opacity="0.9"/>
<stop offset="1" stop-color="#00579F"/>
</linearGradient>
<linearGradient id="paint13_linear" x1="2868.09" y1="6963.3" x2="2880.93" y2="6963.3" gradientUnits="userSpaceOnUse">
<stop stop-color="#F87A5B"/>
<stop offset="1" stop-color="#FF344A"/>
</linearGradient>
<linearGradient id="paint14_linear" x1="1080.6" y1="6898.86" x2="1088.56" y2="6899.29" gradientUnits="userSpaceOnUse">
<stop stop-color="#F87A5B"/>
<stop offset="1" stop-color="#FF344A"/>
</linearGradient>
</defs>
</svg>
